# MagicaVoxel @ Ephtracy

# group
o 

# material
mtllib 7(270).mtl
usemtl palette

# normals
vn -1 0 0
vn 1 0 0
vn 0 0 1
vn 0 0 -1
vn 0 -1 0
vn 0 1 0

# texcoords
vt 0.591797 0.5
vt 0.892578 0.5

# verts
v -2 0 2
v -2 0 -2
v -2 0.1 2
v -2 0.1 -2
v 1.6 0.1 2
v 1.6 0.1 -2
v 1.6 0.4 2
v 1.6 0.4 -2
v 1.8 0.4 2
v 1.8 0.4 -2
v 1.8 0.5 2
v 1.8 0.5 -2
v 2 0 2
v 2 0 -2
v 2 0.1 2
v 2 0.1 -2
v 2 0.5 2
v 2 0.5 -2
v -2 0 2
v -2 0.1 2
v 1.6 0.1 2
v 1.6 0.4 2
v 1.8 0.4 2
v 1.8 0.5 2
v 2 0 2
v 2 0.1 2
v 2 0.5 2
v -2 0 -2
v -2 0.1 -2
v 1.6 0.1 -2
v 1.6 0.4 -2
v 1.8 0.4 -2
v 1.8 0.5 -2
v 2 0 -2
v 2 0.1 -2
v 2 0.5 -2
v -2 0 2
v 2 0 2
v -2 0 -2
v 2 0 -2
v -2 0.1 2
v 1.6 0.1 2
v -2 0.1 -2
v 1.6 0.1 -2
v 1.6 0.4 2
v 1.8 0.4 2
v 1.6 0.4 -2
v 1.8 0.4 -2
v 1.8 0.5 2
v 2 0.5 2
v 1.8 0.5 -2
v 2 0.5 -2

# faces
f 3/1/1 2/1/1 1/1/1
f 4/1/1 2/1/1 3/1/1
f 7/2/1 6/2/1 5/2/1
f 8/2/1 6/2/1 7/2/1
f 11/2/1 10/2/1 9/2/1
f 12/2/1 10/2/1 11/2/1
f 13/1/2 14/1/2 15/1/2
f 15/1/2 14/1/2 16/1/2
f 15/2/2 16/2/2 17/2/2
f 17/2/2 16/2/2 18/2/2
f 21/1/3 20/1/3 19/1/3
f 23/2/3 22/2/3 21/2/3
f 25/1/3 21/1/3 19/1/3
f 26/2/3 24/2/3 23/2/3
f 26/1/3 21/1/3 25/1/3
f 26/2/3 23/2/3 21/2/3
f 27/2/3 24/2/3 26/2/3
f 28/1/4 29/1/4 30/1/4
f 30/2/4 31/2/4 32/2/4
f 28/1/4 30/1/4 34/1/4
f 32/2/4 33/2/4 35/2/4
f 34/1/4 30/1/4 35/1/4
f 30/2/4 32/2/4 35/2/4
f 35/2/4 33/2/4 36/2/4
f 39/1/5 38/1/5 37/1/5
f 40/1/5 38/1/5 39/1/5
f 41/1/6 42/1/6 43/1/6
f 43/1/6 42/1/6 44/1/6
f 45/2/6 46/2/6 47/2/6
f 47/2/6 46/2/6 48/2/6
f 49/2/6 50/2/6 51/2/6
f 51/2/6 50/2/6 52/2/6
