# MagicaVoxel @ Ephtracy

# group
o 

# material
mtllib 8(90).mtl
usemtl palette

# normals
vn -1 0 0
vn 1 0 0
vn 0 0 1
vn 0 0 -1
vn 0 -1 0
vn 0 1 0

# texcoords
vt 0.591797 0.5
vt 0.892578 0.5

# verts
v -2 0 2
v -2 0 -2
v -2 0.1 2
v -2 0.1 -2
v -2 0.5 2
v -2 0.5 -2
v -1.8 0.4 1.8
v -1.8 0.4 -2
v -1.8 0.5 1.8
v -1.8 0.5 -2
v -1.6 0.1 -0.7
v -1.6 0.1 -2
v -1.6 0.2 -2.38419e-07
v -1.6 0.2 -0.7
v -1.6 0.3 1.6
v -1.6 0.3 -2.38419e-07
v -1.6 0.4 1.6
v -1.6 0.4 -2
v -1.5 0.1 -0.3
v -1.5 0.1 -0.7
v -1.5 0.2 -0.3
v -1.5 0.2 -0.7
v -1.3 0.1 -0.1
v -1.3 0.1 -0.3
v -1.3 0.2 -0.1
v -1.3 0.2 -0.3
v -1.2 0.2 0.6
v -1.2 0.2 -2.38419e-07
v -1.2 0.3 0.6
v -1.2 0.3 -2.38419e-07
v -1.1 0.1 0.0999999
v -1.1 0.1 -0.1
v -1.1 0.2 0.0999999
v -1.1 0.2 -0.1
v -1 0.1 0.4
v -1 0.1 0.0999999
v -1 0.2 0.4
v -1 0.2 0.0999999
v -0.8 0.1 0.5
v -0.8 0.1 0.4
v -0.8 0.2 0.5
v -0.8 0.2 0.4
v -0.6 0.2 1.2
v -0.6 0.2 0.6
v -0.6 0.3 1.2
v -0.6 0.3 0.6
v -0.4 0.1 0.9
v -0.4 0.1 0.5
v -0.4 0.2 0.9
v -0.4 0.2 0.5
v -0.2 0.1 1
v -0.2 0.1 0.9
v -0.2 0.2 1
v -0.2 0.2 0.9
v 0.1 0.1 1.1
v 0.1 0.1 1
v 0.1 0.2 1.1
v 0.1 0.2 1
v 0.4 0.2 1.6
v 0.4 0.2 1.2
v 0.4 0.3 1.6
v 0.4 0.3 1.2
v 0.5 0.1 1.3
v 0.5 0.1 1.1
v 0.5 0.2 1.3
v 0.5 0.2 1.1
v 0.6 0.1 1.4
v 0.6 0.1 1.3
v 0.6 0.2 1.4
v 0.6 0.2 1.3
v 0.9 0.1 1.6
v 0.9 0.1 1.4
v 0.9 0.2 1.6
v 0.9 0.2 1.4
v 2 0 2
v 2 0 -2
v 2 0.1 2
v 2 0.1 1.6
v 2 0.1 -2
v 2 0.4 1.8
v 2 0.4 1.6
v 2 0.5 2
v 2 0.5 1.8
v -2 0 2
v -2 0.1 2
v -2 0.5 2
v 2 0 2
v 2 0.1 2
v 2 0.5 2
v -1.8 0.4 1.8
v -1.8 0.5 1.8
v 2 0.4 1.8
v 2 0.5 1.8
v -1.6 0.3 1.6
v -1.6 0.4 1.6
v 0.4 0.2 1.6
v 0.4 0.3 1.6
v 0.9 0.1 1.6
v 0.9 0.2 1.6
v 2 0.1 1.6
v 2 0.4 1.6
v 0.6 0.1 1.4
v 0.6 0.2 1.4
v 0.9 0.1 1.4
v 0.9 0.2 1.4
v 0.5 0.1 1.3
v 0.5 0.2 1.3
v 0.6 0.1 1.3
v 0.6 0.2 1.3
v -0.6 0.2 1.2
v -0.6 0.3 1.2
v 0.4 0.2 1.2
v 0.4 0.3 1.2
v 0.1 0.1 1.1
v 0.1 0.2 1.1
v 0.5 0.1 1.1
v 0.5 0.2 1.1
v -0.2 0.1 1
v -0.2 0.2 1
v 0.1 0.1 1
v 0.1 0.2 1
v -0.4 0.1 0.9
v -0.4 0.2 0.9
v -0.2 0.1 0.9
v -0.2 0.2 0.9
v -1.2 0.2 0.6
v -1.2 0.3 0.6
v -0.6 0.2 0.6
v -0.6 0.3 0.6
v -0.8 0.1 0.5
v -0.8 0.2 0.5
v -0.4 0.1 0.5
v -0.4 0.2 0.5
v -1 0.1 0.4
v -1 0.2 0.4
v -0.8 0.1 0.4
v -0.8 0.2 0.4
v -1.1 0.1 0.0999999
v -1.1 0.2 0.0999999
v -1 0.1 0.0999999
v -1 0.2 0.0999999
v -1.6 0.2 -2.38419e-07
v -1.6 0.3 -2.38419e-07
v -1.2 0.2 -2.38419e-07
v -1.2 0.3 -2.38419e-07
v -1.3 0.1 -0.1
v -1.3 0.2 -0.1
v -1.1 0.1 -0.1
v -1.1 0.2 -0.1
v -1.5 0.1 -0.3
v -1.5 0.2 -0.3
v -1.3 0.1 -0.3
v -1.3 0.2 -0.3
v -1.6 0.1 -0.7
v -1.6 0.2 -0.7
v -1.5 0.1 -0.7
v -1.5 0.2 -0.7
v -2 0 -2
v -2 0.1 -2
v -2 0.5 -2
v -1.8 0.4 -2
v -1.8 0.5 -2
v -1.6 0.1 -2
v -1.6 0.4 -2
v 2 0 -2
v 2 0.1 -2
v -2 0 2
v 2 0 2
v -2 0 -2
v 2 0 -2
v 0.9 0.1 1.6
v 2 0.1 1.6
v 0.6 0.1 1.4
v 0.9 0.1 1.4
v 0.5 0.1 1.3
v 0.6 0.1 1.3
v 0.1 0.1 1.1
v 0.5 0.1 1.1
v -0.2 0.1 1
v 0.1 0.1 1
v -0.4 0.1 0.9
v -0.2 0.1 0.9
v -0.8 0.1 0.5
v -0.4 0.1 0.5
v -1 0.1 0.4
v -0.8 0.1 0.4
v -1.1 0.1 0.0999999
v -1 0.1 0.0999999
v -1.3 0.1 -0.1
v -1.1 0.1 -0.1
v -1.5 0.1 -0.3
v -1.3 0.1 -0.3
v -1.6 0.1 -0.7
v -1.5 0.1 -0.7
v -1.6 0.1 -2
v 2 0.1 -2
v 0.4 0.2 1.6
v 0.9 0.2 1.6
v 0.6 0.2 1.4
v 0.9 0.2 1.4
v 0.5 0.2 1.3
v 0.6 0.2 1.3
v -0.6 0.2 1.2
v 0.4 0.2 1.2
v 0.1 0.2 1.1
v 0.5 0.2 1.1
v -0.2 0.2 1
v 0.1 0.2 1
v -0.4 0.2 0.9
v -0.2 0.2 0.9
v -1.2 0.2 0.6
v -0.6 0.2 0.6
v -0.8 0.2 0.5
v -0.4 0.2 0.5
v -1 0.2 0.4
v -0.8 0.2 0.4
v -1.1 0.2 0.0999999
v -1 0.2 0.0999999
v -1.6 0.2 -2.38419e-07
v -1.2 0.2 -2.38419e-07
v -1.3 0.2 -0.1
v -1.1 0.2 -0.1
v -1.5 0.2 -0.3
v -1.3 0.2 -0.3
v -1.6 0.2 -0.7
v -1.5 0.2 -0.7
v -1.6 0.3 1.6
v 0.4 0.3 1.6
v -0.6 0.3 1.2
v 0.4 0.3 1.2
v -1.2 0.3 0.6
v -0.6 0.3 0.6
v -1.6 0.3 -2.38419e-07
v -1.2 0.3 -2.38419e-07
v -1.8 0.4 1.8
v 2 0.4 1.8
v -1.6 0.4 1.6
v 2 0.4 1.6
v -1.8 0.4 -2
v -1.6 0.4 -2
v -2 0.5 2
v 2 0.5 2
v -1.8 0.5 1.8
v 2 0.5 1.8
v -2 0.5 -2
v -1.8 0.5 -2

# faces
f 3/1/1 2/1/1 1/1/1
f 4/1/1 2/1/1 3/1/1
f 5/2/1 4/2/1 3/2/1
f 6/2/1 4/2/1 5/2/1
f 7/2/2 8/2/2 9/2/2
f 9/2/2 8/2/2 10/2/2
f 11/2/2 12/2/2 14/2/2
f 13/2/2 14/2/2 16/2/2
f 15/2/2 16/2/2 17/2/2
f 14/2/2 12/2/2 18/2/2
f 17/2/2 16/2/2 18/2/2
f 16/2/2 14/2/2 18/2/2
f 19/2/2 20/2/2 21/2/2
f 21/2/2 20/2/2 22/2/2
f 23/2/2 24/2/2 25/2/2
f 25/2/2 24/2/2 26/2/2
f 27/2/2 28/2/2 29/2/2
f 29/2/2 28/2/2 30/2/2
f 31/2/2 32/2/2 33/2/2
f 33/2/2 32/2/2 34/2/2
f 35/2/2 36/2/2 37/2/2
f 37/2/2 36/2/2 38/2/2
f 39/2/2 40/2/2 41/2/2
f 41/2/2 40/2/2 42/2/2
f 43/2/2 44/2/2 45/2/2
f 45/2/2 44/2/2 46/2/2
f 47/2/2 48/2/2 49/2/2
f 49/2/2 48/2/2 50/2/2
f 51/2/2 52/2/2 53/2/2
f 53/2/2 52/2/2 54/2/2
f 55/2/2 56/2/2 57/2/2
f 57/2/2 56/2/2 58/2/2
f 59/2/2 60/2/2 61/2/2
f 61/2/2 60/2/2 62/2/2
f 63/2/2 64/2/2 65/2/2
f 65/2/2 64/2/2 66/2/2
f 67/2/2 68/2/2 69/2/2
f 69/2/2 68/2/2 70/2/2
f 71/2/2 72/2/2 73/2/2
f 73/2/2 72/2/2 74/2/2
f 75/1/2 76/1/2 77/1/2
f 77/1/2 76/1/2 78/1/2
f 78/1/2 76/1/2 79/1/2
f 77/2/2 78/2/2 80/2/2
f 80/2/2 78/2/2 81/2/2
f 77/2/2 80/2/2 82/2/2
f 82/2/2 80/2/2 83/2/2
f 87/1/3 85/1/3 84/1/3
f 88/2/3 86/2/3 85/2/3
f 88/1/3 85/1/3 87/1/3
f 89/2/3 86/2/3 88/2/3
f 90/2/4 91/2/4 92/2/4
f 92/2/4 91/2/4 93/2/4
f 94/2/4 95/2/4 97/2/4
f 96/2/4 97/2/4 99/2/4
f 98/2/4 99/2/4 100/2/4
f 97/2/4 95/2/4 101/2/4
f 100/2/4 99/2/4 101/2/4
f 99/2/4 97/2/4 101/2/4
f 102/2/4 103/2/4 104/2/4
f 104/2/4 103/2/4 105/2/4
f 106/2/4 107/2/4 108/2/4
f 108/2/4 107/2/4 109/2/4
f 110/2/4 111/2/4 112/2/4
f 112/2/4 111/2/4 113/2/4
f 114/2/4 115/2/4 116/2/4
f 116/2/4 115/2/4 117/2/4
f 118/2/4 119/2/4 120/2/4
f 120/2/4 119/2/4 121/2/4
f 122/2/4 123/2/4 124/2/4
f 124/2/4 123/2/4 125/2/4
f 126/2/4 127/2/4 128/2/4
f 128/2/4 127/2/4 129/2/4
f 130/2/4 131/2/4 132/2/4
f 132/2/4 131/2/4 133/2/4
f 134/2/4 135/2/4 136/2/4
f 136/2/4 135/2/4 137/2/4
f 138/2/4 139/2/4 140/2/4
f 140/2/4 139/2/4 141/2/4
f 142/2/4 143/2/4 144/2/4
f 144/2/4 143/2/4 145/2/4
f 146/2/4 147/2/4 148/2/4
f 148/2/4 147/2/4 149/2/4
f 150/2/4 151/2/4 152/2/4
f 152/2/4 151/2/4 153/2/4
f 154/2/4 155/2/4 156/2/4
f 156/2/4 155/2/4 157/2/4
f 159/2/4 160/2/4 161/2/4
f 161/2/4 160/2/4 162/2/4
f 158/1/4 159/1/4 163/1/4
f 159/2/4 161/2/4 163/2/4
f 163/2/4 161/2/4 164/2/4
f 158/1/4 163/1/4 165/1/4
f 165/1/4 163/1/4 166/1/4
f 169/1/5 168/1/5 167/1/5
f 170/1/5 168/1/5 169/1/5
f 171/1/6 172/1/6 174/1/6
f 173/1/6 174/1/6 176/1/6
f 175/1/6 176/1/6 178/1/6
f 177/1/6 178/1/6 180/1/6
f 179/1/6 180/1/6 182/1/6
f 181/1/6 182/1/6 184/1/6
f 183/1/6 184/1/6 186/1/6
f 185/1/6 186/1/6 188/1/6
f 187/1/6 188/1/6 190/1/6
f 189/1/6 190/1/6 192/1/6
f 191/1/6 192/1/6 194/1/6
f 193/1/6 194/1/6 195/1/6
f 174/1/6 172/1/6 196/1/6
f 195/1/6 194/1/6 196/1/6
f 176/1/6 174/1/6 196/1/6
f 194/1/6 192/1/6 196/1/6
f 178/1/6 176/1/6 196/1/6
f 192/1/6 190/1/6 196/1/6
f 180/1/6 178/1/6 196/1/6
f 190/1/6 188/1/6 196/1/6
f 182/1/6 180/1/6 196/1/6
f 188/1/6 186/1/6 196/1/6
f 184/1/6 182/1/6 196/1/6
f 186/1/6 184/1/6 196/1/6
f 197/2/6 198/2/6 199/2/6
f 199/2/6 198/2/6 200/2/6
f 197/2/6 199/2/6 201/2/6
f 201/2/6 199/2/6 202/2/6
f 197/2/6 201/2/6 204/2/6
f 203/2/6 204/2/6 205/2/6
f 204/2/6 201/2/6 206/2/6
f 205/2/6 204/2/6 206/2/6
f 203/2/6 205/2/6 207/2/6
f 207/2/6 205/2/6 208/2/6
f 203/2/6 207/2/6 209/2/6
f 209/2/6 207/2/6 210/2/6
f 203/2/6 209/2/6 212/2/6
f 211/2/6 212/2/6 213/2/6
f 212/2/6 209/2/6 214/2/6
f 213/2/6 212/2/6 214/2/6
f 211/2/6 213/2/6 215/2/6
f 215/2/6 213/2/6 216/2/6
f 211/2/6 215/2/6 217/2/6
f 217/2/6 215/2/6 218/2/6
f 211/2/6 217/2/6 220/2/6
f 219/2/6 220/2/6 221/2/6
f 220/2/6 217/2/6 222/2/6
f 221/2/6 220/2/6 222/2/6
f 219/2/6 221/2/6 223/2/6
f 223/2/6 221/2/6 224/2/6
f 219/2/6 223/2/6 225/2/6
f 225/2/6 223/2/6 226/2/6
f 227/2/6 228/2/6 229/2/6
f 229/2/6 228/2/6 230/2/6
f 227/2/6 229/2/6 231/2/6
f 231/2/6 229/2/6 232/2/6
f 227/2/6 231/2/6 233/2/6
f 233/2/6 231/2/6 234/2/6
f 235/2/6 236/2/6 237/2/6
f 237/2/6 236/2/6 238/2/6
f 235/2/6 237/2/6 239/2/6
f 239/2/6 237/2/6 240/2/6
f 241/2/6 242/2/6 243/2/6
f 243/2/6 242/2/6 244/2/6
f 241/2/6 243/2/6 245/2/6
f 245/2/6 243/2/6 246/2/6
