# MagicaVoxel @ Ephtracy

# group
o 

# material
mtllib 9(180).mtl
usemtl palette

# normals
vn -1 0 0
vn 1 0 0
vn 0 0 1
vn 0 0 -1
vn 0 -1 0
vn 0 1 0

# texcoords
vt 0.591797 0.5
vt 0.892578 0.5

# verts
v -2 0 2
v -2 0 -1.6
v -2 0 -2
v -2 0.1 2
v -2 0.1 -1.6
v -2 0.4 -1.6
v -2 0.4 -1.8
v -2 0.5 -1.8
v -2 0.5 -2
v 0.5 0.1 -1.6
v 0.5 0.1 -2
v 0.5 0.3 -1.6
v 0.5 0.3 -1.8
v 0.5 0.4 -1.8
v 0.5 0.4 -2
v 0.6 0.3 -1.6
v 0.6 0.3 -1.8
v 0.6 0.4 -1.6
v 0.6 0.4 -1.8
v 0.6 0.4 -2
v 0.6 0.5 -1.8
v 0.6 0.5 -2
v -0.6 0.3 -1.6
v -0.6 0.3 -1.8
v -0.6 0.4 -1.6
v -0.6 0.4 -1.8
v -0.6 0.4 -2
v -0.6 0.5 -1.8
v -0.6 0.5 -2
v -0.5 0.1 -1.6
v -0.5 0.1 -2
v -0.5 0.3 -1.6
v -0.5 0.3 -1.8
v -0.5 0.4 -1.8
v -0.5 0.4 -2
v 2 0 2
v 2 0 -1.6
v 2 0 -2
v 2 0.1 2
v 2 0.1 -1.6
v 2 0.4 -1.6
v 2 0.4 -1.8
v 2 0.5 -1.8
v 2 0.5 -2
v -2 0 2
v -2 0.1 2
v 2 0 2
v 2 0.1 2
v -2 0.1 -1.6
v -2 0.4 -1.6
v -0.6 0.3 -1.6
v -0.6 0.4 -1.6
v -0.5 0.1 -1.6
v -0.5 0.3 -1.6
v 0.5 0.1 -1.6
v 0.5 0.3 -1.6
v 0.6 0.3 -1.6
v 0.6 0.4 -1.6
v 2 0.1 -1.6
v 2 0.4 -1.6
v -2 0.4 -1.8
v -2 0.5 -1.8
v -0.6 0.3 -1.8
v -0.6 0.4 -1.8
v -0.6 0.5 -1.8
v -0.5 0.3 -1.8
v -0.5 0.4 -1.8
v 0.5 0.3 -1.8
v 0.5 0.4 -1.8
v 0.6 0.3 -1.8
v 0.6 0.4 -1.8
v 0.6 0.5 -1.8
v 2 0.4 -1.8
v 2 0.5 -1.8
v -2 0 -2
v -2 0.5 -2
v -0.6 0.4 -2
v -0.6 0.5 -2
v -0.5 0 -2
v -0.5 0.1 -2
v -0.5 0.4 -2
v 0.5 0 -2
v 0.5 0.1 -2
v 0.5 0.4 -2
v 0.6 0.4 -2
v 0.6 0.5 -2
v 2 0 -2
v 2 0.5 -2
v -2 0 2
v 2 0 2
v -2 0 -1.6
v -0.5 0 -1.6
v 0.5 0 -1.6
v 2 0 -1.6
v -2 0 -2
v -0.5 0 -2
v 0.5 0 -2
v 2 0 -2
v -2 0.1 2
v 2 0.1 2
v -2 0.1 -1.6
v -0.5 0.1 -1.6
v 0.5 0.1 -1.6
v 2 0.1 -1.6
v -0.5 0.1 -2
v 0.5 0.1 -2
v -0.6 0.3 -1.6
v -0.5 0.3 -1.6
v 0.5 0.3 -1.6
v 0.6 0.3 -1.6
v -0.6 0.3 -1.8
v -0.5 0.3 -1.8
v 0.5 0.3 -1.8
v 0.6 0.3 -1.8
v -2 0.4 -1.6
v -0.6 0.4 -1.6
v 0.6 0.4 -1.6
v 2 0.4 -1.6
v -2 0.4 -1.8
v -0.6 0.4 -1.8
v -0.5 0.4 -1.8
v 0.5 0.4 -1.8
v 0.6 0.4 -1.8
v 2 0.4 -1.8
v -0.6 0.4 -2
v -0.5 0.4 -2
v 0.5 0.4 -2
v 0.6 0.4 -2
v -2 0.5 -1.8
v -0.6 0.5 -1.8
v 0.6 0.5 -1.8
v 2 0.5 -1.8
v -2 0.5 -2
v -0.6 0.5 -2
v 0.6 0.5 -2
v 2 0.5 -2

# faces
f 4/1/1 2/1/1 1/1/1
f 5/2/1 3/2/1 2/2/1
f 5/1/1 2/1/1 4/1/1
f 6/2/1 3/2/1 5/2/1
f 7/2/1 3/2/1 6/2/1
f 8/2/1 3/2/1 7/2/1
f 9/2/1 3/2/1 8/2/1
f 12/2/1 11/2/1 10/2/1
f 13/2/1 11/2/1 12/2/1
f 14/2/1 11/2/1 13/2/1
f 15/2/1 11/2/1 14/2/1
f 18/2/1 17/2/1 16/2/1
f 19/2/1 17/2/1 18/2/1
f 21/2/1 20/2/1 19/2/1
f 22/2/1 20/2/1 21/2/1
f 23/2/2 24/2/2 25/2/2
f 25/2/2 24/2/2 26/2/2
f 26/2/2 27/2/2 28/2/2
f 28/2/2 27/2/2 29/2/2
f 30/2/2 31/2/2 32/2/2
f 32/2/2 31/2/2 33/2/2
f 33/2/2 31/2/2 34/2/2
f 34/2/2 31/2/2 35/2/2
f 36/1/2 37/1/2 39/1/2
f 37/2/2 38/2/2 40/2/2
f 39/1/2 37/1/2 40/1/2
f 40/2/2 38/2/2 41/2/2
f 41/2/2 38/2/2 42/2/2
f 42/2/2 38/2/2 43/2/2
f 43/2/2 38/2/2 44/2/2
f 47/1/3 46/1/3 45/1/3
f 48/1/3 46/1/3 47/1/3
f 51/2/3 50/2/3 49/2/3
f 52/2/3 50/2/3 51/2/3
f 53/2/3 51/2/3 49/2/3
f 54/2/3 51/2/3 53/2/3
f 57/2/3 56/2/3 55/2/3
f 59/2/3 57/2/3 55/2/3
f 59/2/3 58/2/3 57/2/3
f 60/2/3 58/2/3 59/2/3
f 64/2/3 62/2/3 61/2/3
f 65/2/3 62/2/3 64/2/3
f 66/2/3 64/2/3 63/2/3
f 67/2/3 64/2/3 66/2/3
f 70/2/3 69/2/3 68/2/3
f 71/2/3 69/2/3 70/2/3
f 73/2/3 72/2/3 71/2/3
f 74/2/3 72/2/3 73/2/3
f 75/2/4 76/2/4 77/2/4
f 77/2/4 76/2/4 78/2/4
f 75/2/4 77/2/4 79/2/4
f 79/2/4 77/2/4 80/2/4
f 80/2/4 77/2/4 81/2/4
f 79/1/4 80/1/4 82/1/4
f 82/1/4 80/1/4 83/1/4
f 82/2/4 83/2/4 85/2/4
f 83/2/4 84/2/4 85/2/4
f 82/2/4 85/2/4 87/2/4
f 85/2/4 86/2/4 87/2/4
f 87/2/4 86/2/4 88/2/4
f 91/1/5 90/1/5 89/1/5
f 92/1/5 90/1/5 91/1/5
f 93/1/5 90/1/5 92/1/5
f 94/1/5 90/1/5 93/1/5
f 95/2/5 92/2/5 91/2/5
f 96/1/5 93/1/5 92/1/5
f 96/2/5 92/2/5 95/2/5
f 97/2/5 94/2/5 93/2/5
f 97/1/5 93/1/5 96/1/5
f 98/2/5 94/2/5 97/2/5
f 99/1/6 100/1/6 101/1/6
f 101/1/6 100/1/6 102/1/6
f 102/1/6 100/1/6 103/1/6
f 103/1/6 100/1/6 104/1/6
f 102/1/6 103/1/6 105/1/6
f 105/1/6 103/1/6 106/1/6
f 107/2/6 108/2/6 111/2/6
f 111/2/6 108/2/6 112/2/6
f 109/2/6 110/2/6 113/2/6
f 113/2/6 110/2/6 114/2/6
f 115/2/6 116/2/6 119/2/6
f 119/2/6 116/2/6 120/2/6
f 117/2/6 118/2/6 123/2/6
f 123/2/6 118/2/6 124/2/6
f 120/2/6 121/2/6 125/2/6
f 125/2/6 121/2/6 126/2/6
f 122/2/6 123/2/6 127/2/6
f 127/2/6 123/2/6 128/2/6
f 129/2/6 130/2/6 133/2/6
f 133/2/6 130/2/6 134/2/6
f 131/2/6 132/2/6 135/2/6
f 135/2/6 132/2/6 136/2/6
