# MagicaVoxel @ Ephtracy

# group
o 

# material
mtllib FlowerNorm.mtl
usemtl palette

# normals
vn -1 0 0
vn 1 0 0
vn 0 0 1
vn 0 0 -1
vn 0 -1 0
vn 0 1 0

# texcoords
vt 0.0175781 0.5
vt 0.232422 0.5
vt 0.748047 0.5
vt 0.958984 0.5

# verts
v -0.4 0 1
v -0.4 0 -0.4
v -0.4 0.4 1
v -0.4 0.4 -0.4
v -0.4 2.2 1
v -0.4 2.2 0.5
v -0.4 2.7 1.4
v -0.4 2.7 1
v -0.4 2.7 0.5
v -0.4 2.7 0.1
v -0.4 3.1 1.4
v -0.4 3.1 1
v -0.4 3.1 0.5
v -0.4 3.1 0.1
v -0.4 3.1 -1.3
v -0.4 3.1 -1.7
v -0.4 3.6 -0.8
v -0.4 3.6 -1.3
v -0.4 3.6 -1.7
v -0.4 3.6 -2.2
v -0.4 4 -0.8
v -0.4 4 -1.3
v -0.4 4 -1.7
v -0.4 4 -2.2
v 0 0.4 0.5
v 0 0.4 0.1
v 0 1.3 0.5
v 0 1.3 0.1
v 0 1.3 -0.4
v 0 2.2 1.4
v 0 2.2 1
v 0 2.2 0.5
v 0 2.2 0.1
v 0 2.7 1.4
v 0 2.7 1
v 0 2.7 0.5
v 0 2.7 0.1
v 0 2.7 -0.4
v 0 2.7 -0.8
v 0 3.1 1
v 0 3.1 0.5
v 0 3.1 -0.8
v 0 3.1 -1.3
v 0 3.1 -1.7
v 0 3.1 -2.2
v 0 3.6 -0.4
v 0 3.6 -0.8
v 0 3.6 -1.3
v 0 3.6 -1.7
v 0 3.6 -2.2
v 0 4 -1.3
v 0 4 -1.7
v 0.5 2.2 1
v 0.5 2.2 0.5
v 0.5 2.7 1.4
v 0.5 2.7 1
v 0.5 2.7 0.5
v 0.5 2.7 0.1
v 0.5 3.1 1.4
v 0.5 3.1 1
v 0.5 3.1 0.5
v 0.5 3.1 0.1
v 0.5 3.1 -1.3
v 0.5 3.1 -1.7
v 0.5 3.6 -0.8
v 0.5 3.6 -1.3
v 0.5 3.6 -1.7
v 0.5 3.6 -2.2
v 0.5 4 -0.8
v 0.5 4 -1.3
v 0.5 4 -1.7
v 0.5 4 -2.2
v 0 2.2 1
v 0 2.2 0.5
v 0 2.7 1.4
v 0 2.7 1
v 0 2.7 0.5
v 0 2.7 0.1
v 0 3.1 1.4
v 0 3.1 1
v 0 3.1 0.5
v 0 3.1 0.1
v 0 3.1 -1.3
v 0 3.1 -1.7
v 0 3.6 -0.8
v 0 3.6 -1.3
v 0 3.6 -1.7
v 0 3.6 -2.2
v 0 4 -0.8
v 0 4 -1.3
v 0 4 -1.7
v 0 4 -2.2
v 0.5 0.4 0.5
v 0.5 0.4 0.1
v 0.5 1.3 0.5
v 0.5 1.3 0.1
v 0.5 1.3 -0.4
v 0.5 2.2 1.4
v 0.5 2.2 1
v 0.5 2.2 0.5
v 0.5 2.2 0.1
v 0.5 2.7 1.4
v 0.5 2.7 1
v 0.5 2.7 0.5
v 0.5 2.7 0.1
v 0.5 2.7 -0.4
v 0.5 2.7 -0.8
v 0.5 3.1 1
v 0.5 3.1 0.5
v 0.5 3.1 -0.8
v 0.5 3.1 -1.3
v 0.5 3.1 -1.7
v 0.5 3.1 -2.2
v 0.5 3.6 -0.4
v 0.5 3.6 -0.8
v 0.5 3.6 -1.3
v 0.5 3.6 -1.7
v 0.5 3.6 -2.2
v 0.5 4 -1.3
v 0.5 4 -1.7
v 0.9 0 1
v 0.9 0 -0.4
v 0.9 0.4 1
v 0.9 0.4 -0.4
v 0.9 2.2 1
v 0.9 2.2 0.5
v 0.9 2.7 1.4
v 0.9 2.7 1
v 0.9 2.7 0.5
v 0.9 2.7 0.1
v 0.9 3.1 1.4
v 0.9 3.1 1
v 0.9 3.1 0.5
v 0.9 3.1 0.1
v 0.9 3.1 -1.3
v 0.9 3.1 -1.7
v 0.9 3.6 -0.8
v 0.9 3.6 -1.3
v 0.9 3.6 -1.7
v 0.9 3.6 -2.2
v 0.9 4 -0.8
v 0.9 4 -1.3
v 0.9 4 -1.7
v 0.9 4 -2.2
v -0.4 2.7 1.4
v -0.4 3.1 1.4
v 0 2.2 1.4
v 0 2.7 1.4
v 0 3.1 1.4
v 0.5 2.2 1.4
v 0.5 2.7 1.4
v 0.5 3.1 1.4
v 0.9 2.7 1.4
v 0.9 3.1 1.4
v -0.4 0 1
v -0.4 0.4 1
v -0.4 2.2 1
v -0.4 2.7 1
v 0 2.2 1
v 0 2.7 1
v 0 3.1 1
v 0.5 2.2 1
v 0.5 2.7 1
v 0.5 3.1 1
v 0.9 0 1
v 0.9 0.4 1
v 0.9 2.2 1
v 0.9 2.7 1
v -0.4 2.7 0.5
v -0.4 3.1 0.5
v 0 0.4 0.5
v 0 1.3 0.5
v 0 2.2 0.5
v 0 2.7 0.5
v 0 3.1 0.5
v 0.5 0.4 0.5
v 0.5 1.3 0.5
v 0.5 2.2 0.5
v 0.5 2.7 0.5
v 0.5 3.1 0.5
v 0.9 2.7 0.5
v 0.9 3.1 0.5
v 0 1.3 0.1
v 0 2.2 0.1
v 0.5 1.3 0.1
v 0.5 2.2 0.1
v 0 2.7 -0.4
v 0 3.6 -0.4
v 0.5 2.7 -0.4
v 0.5 3.6 -0.4
v -0.4 3.6 -0.8
v -0.4 4 -0.8
v 0 3.6 -0.8
v 0 4 -0.8
v 0.5 3.6 -0.8
v 0.5 4 -0.8
v 0.9 3.6 -0.8
v 0.9 4 -0.8
v -0.4 3.1 -1.3
v -0.4 3.6 -1.3
v 0 3.1 -1.3
v 0 3.6 -1.3
v 0 4 -1.3
v 0.5 3.1 -1.3
v 0.5 3.6 -1.3
v 0.5 4 -1.3
v 0.9 3.1 -1.3
v 0.9 3.6 -1.3
v -0.4 3.6 -1.7
v -0.4 4 -1.7
v 0 3.1 -1.7
v 0 3.6 -1.7
v 0 4 -1.7
v 0.5 3.1 -1.7
v 0.5 3.6 -1.7
v 0.5 4 -1.7
v 0.9 3.6 -1.7
v 0.9 4 -1.7
v -0.4 2.7 1
v -0.4 3.1 1
v 0 2.2 1
v 0 2.7 1
v 0 3.1 1
v 0.5 2.2 1
v 0.5 2.7 1
v 0.5 3.1 1
v 0.9 2.7 1
v 0.9 3.1 1
v -0.4 2.2 0.5
v -0.4 2.7 0.5
v 0 2.2 0.5
v 0 2.7 0.5
v 0 3.1 0.5
v 0.5 2.2 0.5
v 0.5 2.7 0.5
v 0.5 3.1 0.5
v 0.9 2.2 0.5
v 0.9 2.7 0.5
v -0.4 2.7 0.1
v -0.4 3.1 0.1
v 0 0.4 0.1
v 0 1.3 0.1
v 0 2.7 0.1
v 0 3.1 0.1
v 0.5 0.4 0.1
v 0.5 1.3 0.1
v 0.5 2.7 0.1
v 0.5 3.1 0.1
v 0.9 2.7 0.1
v 0.9 3.1 0.1
v -0.4 0 -0.4
v -0.4 0.4 -0.4
v 0 1.3 -0.4
v 0 2.7 -0.4
v 0.5 1.3 -0.4
v 0.5 2.7 -0.4
v 0.9 0 -0.4
v 0.9 0.4 -0.4
v 0 2.7 -0.8
v 0 3.1 -0.8
v 0.5 2.7 -0.8
v 0.5 3.1 -0.8
v -0.4 3.6 -1.3
v -0.4 4 -1.3
v 0 3.1 -1.3
v 0 3.6 -1.3
v 0 4 -1.3
v 0.5 3.1 -1.3
v 0.5 3.6 -1.3
v 0.5 4 -1.3
v 0.9 3.6 -1.3
v 0.9 4 -1.3
v -0.4 3.1 -1.7
v -0.4 3.6 -1.7
v 0 3.1 -1.7
v 0 3.6 -1.7
v 0 4 -1.7
v 0.5 3.1 -1.7
v 0.5 3.6 -1.7
v 0.5 4 -1.7
v 0.9 3.1 -1.7
v 0.9 3.6 -1.7
v -0.4 3.6 -2.2
v -0.4 4 -2.2
v 0 3.1 -2.2
v 0 3.6 -2.2
v 0 4 -2.2
v 0.5 3.1 -2.2
v 0.5 3.6 -2.2
v 0.5 4 -2.2
v 0.9 3.6 -2.2
v 0.9 4 -2.2
v -0.4 0 1
v 0.9 0 1
v -0.4 0 -0.4
v 0.9 0 -0.4
v 0 1.3 0.1
v 0.5 1.3 0.1
v 0 1.3 -0.4
v 0.5 1.3 -0.4
v 0 2.2 1.4
v 0.5 2.2 1.4
v -0.4 2.2 1
v 0 2.2 1
v 0.5 2.2 1
v 0.9 2.2 1
v -0.4 2.2 0.5
v 0 2.2 0.5
v 0.5 2.2 0.5
v 0.9 2.2 0.5
v 0 2.2 0.1
v 0.5 2.2 0.1
v -0.4 2.7 1.4
v 0 2.7 1.4
v 0.5 2.7 1.4
v 0.9 2.7 1.4
v -0.4 2.7 1
v 0 2.7 1
v 0.5 2.7 1
v 0.9 2.7 1
v -0.4 2.7 0.5
v 0 2.7 0.5
v 0.5 2.7 0.5
v 0.9 2.7 0.5
v -0.4 2.7 0.1
v 0 2.7 0.1
v 0.5 2.7 0.1
v 0.9 2.7 0.1
v 0 2.7 -0.4
v 0.5 2.7 -0.4
v 0 2.7 -0.8
v 0.5 2.7 -0.8
v 0 3.1 -0.8
v 0.5 3.1 -0.8
v -0.4 3.1 -1.3
v 0 3.1 -1.3
v 0.5 3.1 -1.3
v 0.9 3.1 -1.3
v -0.4 3.1 -1.7
v 0 3.1 -1.7
v 0.5 3.1 -1.7
v 0.9 3.1 -1.7
v 0 3.1 -2.2
v 0.5 3.1 -2.2
v -0.4 3.6 -0.8
v 0 3.6 -0.8
v 0.5 3.6 -0.8
v 0.9 3.6 -0.8
v -0.4 3.6 -1.3
v 0 3.6 -1.3
v 0.5 3.6 -1.3
v 0.9 3.6 -1.3
v -0.4 3.6 -1.7
v 0 3.6 -1.7
v 0.5 3.6 -1.7
v 0.9 3.6 -1.7
v -0.4 3.6 -2.2
v 0 3.6 -2.2
v 0.5 3.6 -2.2
v 0.9 3.6 -2.2
v -0.4 0.4 1
v 0.9 0.4 1
v 0 0.4 0.5
v 0.5 0.4 0.5
v 0 0.4 0.1
v 0.5 0.4 0.1
v -0.4 0.4 -0.4
v 0.9 0.4 -0.4
v 0 1.3 0.5
v 0.5 1.3 0.5
v 0 1.3 0.1
v 0.5 1.3 0.1
v 0 2.7 1.4
v 0.5 2.7 1.4
v -0.4 2.7 1
v 0 2.7 1
v 0.5 2.7 1
v 0.9 2.7 1
v -0.4 2.7 0.5
v 0 2.7 0.5
v 0.5 2.7 0.5
v 0.9 2.7 0.5
v 0 2.7 0.1
v 0.5 2.7 0.1
v 0 2.7 -0.4
v 0.5 2.7 -0.4
v -0.4 3.1 1.4
v 0 3.1 1.4
v 0.5 3.1 1.4
v 0.9 3.1 1.4
v -0.4 3.1 1
v 0 3.1 1
v 0.5 3.1 1
v 0.9 3.1 1
v -0.4 3.1 0.5
v 0 3.1 0.5
v 0.5 3.1 0.5
v 0.9 3.1 0.5
v -0.4 3.1 0.1
v 0 3.1 0.1
v 0.5 3.1 0.1
v 0.9 3.1 0.1
v 0 3.6 -0.4
v 0.5 3.6 -0.4
v 0 3.6 -0.8
v 0.5 3.6 -0.8
v -0.4 3.6 -1.3
v 0 3.6 -1.3
v 0.5 3.6 -1.3
v 0.9 3.6 -1.3
v -0.4 3.6 -1.7
v 0 3.6 -1.7
v 0.5 3.6 -1.7
v 0.9 3.6 -1.7
v 0 3.6 -2.2
v 0.5 3.6 -2.2
v -0.4 4 -0.8
v 0 4 -0.8
v 0.5 4 -0.8
v 0.9 4 -0.8
v -0.4 4 -1.3
v 0 4 -1.3
v 0.5 4 -1.3
v 0.9 4 -1.3
v -0.4 4 -1.7
v 0 4 -1.7
v 0.5 4 -1.7
v 0.9 4 -1.7
v -0.4 4 -2.2
v 0 4 -2.2
v 0.5 4 -2.2
v 0.9 4 -2.2

# faces
f 3/2/1 2/2/1 1/2/1
f 4/2/1 2/2/1 3/2/1
f 8/4/1 6/4/1 5/4/1
f 9/4/1 6/4/1 8/4/1
f 11/4/1 8/4/1 7/4/1
f 12/4/1 8/4/1 11/4/1
f 13/4/1 10/4/1 9/4/1
f 14/4/1 10/4/1 13/4/1
f 18/4/1 16/4/1 15/4/1
f 19/4/1 16/4/1 18/4/1
f 21/4/1 18/4/1 17/4/1
f 22/4/1 18/4/1 21/4/1
f 23/4/1 20/4/1 19/4/1
f 24/4/1 20/4/1 23/4/1
f 27/3/1 26/3/1 25/3/1
f 28/3/1 26/3/1 27/3/1
f 33/3/1 29/3/1 28/3/1
f 34/4/1 31/4/1 30/4/1
f 35/4/1 31/4/1 34/4/1
f 36/4/1 33/4/1 32/4/1
f 37/3/1 29/3/1 33/3/1
f 37/4/1 33/4/1 36/4/1
f 38/3/1 29/3/1 37/3/1
f 40/1/1 36/1/1 35/1/1
f 41/1/1 36/1/1 40/1/1
f 42/3/1 39/3/1 38/3/1
f 46/3/1 42/3/1 38/3/1
f 47/4/1 43/4/1 42/4/1
f 47/3/1 42/3/1 46/3/1
f 48/4/1 43/4/1 47/4/1
f 49/4/1 45/4/1 44/4/1
f 50/4/1 45/4/1 49/4/1
f 51/1/1 49/1/1 48/1/1
f 52/1/1 49/1/1 51/1/1
f 56/4/1 54/4/1 53/4/1
f 57/4/1 54/4/1 56/4/1
f 59/4/1 56/4/1 55/4/1
f 60/4/1 56/4/1 59/4/1
f 61/4/1 58/4/1 57/4/1
f 62/4/1 58/4/1 61/4/1
f 66/4/1 64/4/1 63/4/1
f 67/4/1 64/4/1 66/4/1
f 69/4/1 66/4/1 65/4/1
f 70/4/1 66/4/1 69/4/1
f 71/4/1 68/4/1 67/4/1
f 72/4/1 68/4/1 71/4/1
f 73/4/2 74/4/2 76/4/2
f 76/4/2 74/4/2 77/4/2
f 75/4/2 76/4/2 79/4/2
f 79/4/2 76/4/2 80/4/2
f 77/4/2 78/4/2 81/4/2
f 81/4/2 78/4/2 82/4/2
f 83/4/2 84/4/2 86/4/2
f 86/4/2 84/4/2 87/4/2
f 85/4/2 86/4/2 89/4/2
f 89/4/2 86/4/2 90/4/2
f 87/4/2 88/4/2 91/4/2
f 91/4/2 88/4/2 92/4/2
f 93/3/2 94/3/2 95/3/2
f 95/3/2 94/3/2 96/3/2
f 96/3/2 97/3/2 101/3/2
f 98/4/2 99/4/2 102/4/2
f 102/4/2 99/4/2 103/4/2
f 100/4/2 101/4/2 104/4/2
f 101/3/2 97/3/2 105/3/2
f 104/4/2 101/4/2 105/4/2
f 105/3/2 97/3/2 106/3/2
f 103/1/2 104/1/2 108/1/2
f 108/1/2 104/1/2 109/1/2
f 106/3/2 107/3/2 110/3/2
f 106/3/2 110/3/2 114/3/2
f 110/4/2 111/4/2 115/4/2
f 114/3/2 110/3/2 115/3/2
f 115/4/2 111/4/2 116/4/2
f 112/4/2 113/4/2 117/4/2
f 117/4/2 113/4/2 118/4/2
f 116/1/2 117/1/2 119/1/2
f 119/1/2 117/1/2 120/1/2
f 121/2/2 122/2/2 123/2/2
f 123/2/2 122/2/2 124/2/2
f 125/4/2 126/4/2 128/4/2
f 128/4/2 126/4/2 129/4/2
f 127/4/2 128/4/2 131/4/2
f 131/4/2 128/4/2 132/4/2
f 129/4/2 130/4/2 133/4/2
f 133/4/2 130/4/2 134/4/2
f 135/4/2 136/4/2 138/4/2
f 138/4/2 136/4/2 139/4/2
f 137/4/2 138/4/2 141/4/2
f 141/4/2 138/4/2 142/4/2
f 139/4/2 140/4/2 143/4/2
f 143/4/2 140/4/2 144/4/2
f 148/4/3 146/4/3 145/4/3
f 149/4/3 146/4/3 148/4/3
f 150/4/3 148/4/3 147/4/3
f 151/4/3 148/4/3 150/4/3
f 153/4/3 152/4/3 151/4/3
f 154/4/3 152/4/3 153/4/3
f 159/4/3 158/4/3 157/4/3
f 160/4/3 158/4/3 159/4/3
f 163/1/3 161/1/3 160/1/3
f 164/1/3 161/1/3 163/1/3
f 165/2/3 156/2/3 155/2/3
f 166/2/3 156/2/3 165/2/3
f 167/4/3 163/4/3 162/4/3
f 168/4/3 163/4/3 167/4/3
f 174/4/3 170/4/3 169/4/3
f 175/4/3 170/4/3 174/4/3
f 176/3/3 172/3/3 171/3/3
f 177/3/3 172/3/3 176/3/3
f 178/4/3 174/4/3 173/4/3
f 179/4/3 174/4/3 178/4/3
f 181/4/3 180/4/3 179/4/3
f 182/4/3 180/4/3 181/4/3
f 185/3/3 184/3/3 183/3/3
f 186/3/3 184/3/3 185/3/3
f 189/3/3 188/3/3 187/3/3
f 190/3/3 188/3/3 189/3/3
f 193/4/3 192/4/3 191/4/3
f 194/4/3 192/4/3 193/4/3
f 197/4/3 196/4/3 195/4/3
f 198/4/3 196/4/3 197/4/3
f 201/4/3 200/4/3 199/4/3
f 202/4/3 200/4/3 201/4/3
f 205/1/3 203/1/3 202/1/3
f 206/1/3 203/1/3 205/1/3
f 207/4/3 205/4/3 204/4/3
f 208/4/3 205/4/3 207/4/3
f 212/4/3 210/4/3 209/4/3
f 213/4/3 210/4/3 212/4/3
f 214/4/3 212/4/3 211/4/3
f 215/4/3 212/4/3 214/4/3
f 217/4/3 216/4/3 215/4/3
f 218/4/3 216/4/3 217/4/3
f 219/4/4 220/4/4 222/4/4
f 222/4/4 220/4/4 223/4/4
f 221/4/4 222/4/4 224/4/4
f 224/4/4 222/4/4 225/4/4
f 225/4/4 226/4/4 227/4/4
f 227/4/4 226/4/4 228/4/4
f 229/4/4 230/4/4 231/4/4
f 231/4/4 230/4/4 232/4/4
f 232/1/4 233/1/4 235/1/4
f 235/1/4 233/1/4 236/1/4
f 234/4/4 235/4/4 237/4/4
f 237/4/4 235/4/4 238/4/4
f 239/4/4 240/4/4 243/4/4
f 243/4/4 240/4/4 244/4/4
f 241/3/4 242/3/4 245/3/4
f 245/3/4 242/3/4 246/3/4
f 247/4/4 248/4/4 249/4/4
f 249/4/4 248/4/4 250/4/4
f 253/3/4 254/3/4 255/3/4
f 255/3/4 254/3/4 256/3/4
f 251/2/4 252/2/4 257/2/4
f 257/2/4 252/2/4 258/2/4
f 259/3/4 260/3/4 261/3/4
f 261/3/4 260/3/4 262/3/4
f 263/4/4 264/4/4 266/4/4
f 266/4/4 264/4/4 267/4/4
f 265/4/4 266/4/4 268/4/4
f 268/4/4 266/4/4 269/4/4
f 269/4/4 270/4/4 271/4/4
f 271/4/4 270/4/4 272/4/4
f 273/4/4 274/4/4 275/4/4
f 275/4/4 274/4/4 276/4/4
f 276/1/4 277/1/4 279/1/4
f 279/1/4 277/1/4 280/1/4
f 278/4/4 279/4/4 281/4/4
f 281/4/4 279/4/4 282/4/4
f 283/4/4 284/4/4 286/4/4
f 286/4/4 284/4/4 287/4/4
f 285/4/4 286/4/4 288/4/4
f 288/4/4 286/4/4 289/4/4
f 289/4/4 290/4/4 291/4/4
f 291/4/4 290/4/4 292/4/4
f 295/2/5 294/2/5 293/2/5
f 296/2/5 294/2/5 295/2/5
f 299/3/5 298/3/5 297/3/5
f 300/3/5 298/3/5 299/3/5
f 304/4/5 302/4/5 301/4/5
f 305/4/5 302/4/5 304/4/5
f 307/4/5 304/4/5 303/4/5
f 308/4/5 304/4/5 307/4/5
f 309/4/5 306/4/5 305/4/5
f 310/4/5 306/4/5 309/4/5
f 311/4/5 309/4/5 308/4/5
f 312/4/5 309/4/5 311/4/5
f 317/4/5 314/4/5 313/4/5
f 318/4/5 314/4/5 317/4/5
f 319/4/5 316/4/5 315/4/5
f 320/4/5 316/4/5 319/4/5
f 322/1/5 319/1/5 318/1/5
f 323/1/5 319/1/5 322/1/5
f 325/4/5 322/4/5 321/4/5
f 326/4/5 322/4/5 325/4/5
f 327/4/5 324/4/5 323/4/5
f 328/4/5 324/4/5 327/4/5
f 331/3/5 330/3/5 329/3/5
f 332/3/5 330/3/5 331/3/5
f 336/4/5 334/4/5 333/4/5
f 337/4/5 334/4/5 336/4/5
f 339/4/5 336/4/5 335/4/5
f 340/4/5 336/4/5 339/4/5
f 341/4/5 338/4/5 337/4/5
f 342/4/5 338/4/5 341/4/5
f 343/4/5 341/4/5 340/4/5
f 344/4/5 341/4/5 343/4/5
f 349/4/5 346/4/5 345/4/5
f 350/4/5 346/4/5 349/4/5
f 351/4/5 348/4/5 347/4/5
f 352/4/5 348/4/5 351/4/5
f 354/1/5 351/1/5 350/1/5
f 355/1/5 351/1/5 354/1/5
f 357/4/5 354/4/5 353/4/5
f 358/4/5 354/4/5 357/4/5
f 359/4/5 356/4/5 355/4/5
f 360/4/5 356/4/5 359/4/5
f 361/2/6 362/2/6 363/2/6
f 363/2/6 362/2/6 364/2/6
f 361/2/6 363/2/6 365/2/6
f 364/2/6 362/2/6 366/2/6
f 361/2/6 365/2/6 367/2/6
f 365/2/6 366/2/6 367/2/6
f 366/2/6 362/2/6 368/2/6
f 367/2/6 366/2/6 368/2/6
f 369/3/6 370/3/6 371/3/6
f 371/3/6 370/3/6 372/3/6
f 373/4/6 374/4/6 376/4/6
f 376/4/6 374/4/6 377/4/6
f 375/4/6 376/4/6 379/4/6
f 379/4/6 376/4/6 380/4/6
f 377/4/6 378/4/6 381/4/6
f 381/4/6 378/4/6 382/4/6
f 380/4/6 381/4/6 383/4/6
f 383/4/6 381/4/6 384/4/6
f 383/3/6 384/3/6 385/3/6
f 385/3/6 384/3/6 386/3/6
f 387/4/6 388/4/6 391/4/6
f 391/4/6 388/4/6 392/4/6
f 389/4/6 390/4/6 393/4/6
f 393/4/6 390/4/6 394/4/6
f 392/1/6 393/1/6 396/1/6
f 396/1/6 393/1/6 397/1/6
f 395/4/6 396/4/6 399/4/6
f 399/4/6 396/4/6 400/4/6
f 397/4/6 398/4/6 401/4/6
f 401/4/6 398/4/6 402/4/6
f 403/3/6 404/3/6 405/3/6
f 405/3/6 404/3/6 406/3/6
f 405/4/6 406/4/6 408/4/6
f 408/4/6 406/4/6 409/4/6
f 407/4/6 408/4/6 411/4/6
f 411/4/6 408/4/6 412/4/6
f 409/4/6 410/4/6 413/4/6
f 413/4/6 410/4/6 414/4/6
f 412/4/6 413/4/6 415/4/6
f 415/4/6 413/4/6 416/4/6
f 417/4/6 418/4/6 421/4/6
f 421/4/6 418/4/6 422/4/6
f 419/4/6 420/4/6 423/4/6
f 423/4/6 420/4/6 424/4/6
f 422/1/6 423/1/6 426/1/6
f 426/1/6 423/1/6 427/1/6
f 425/4/6 426/4/6 429/4/6
f 429/4/6 426/4/6 430/4/6
f 427/4/6 428/4/6 431/4/6
f 431/4/6 428/4/6 432/4/6
