# MagicaVoxel @ Ephtracy

# group
o 

# material
mtllib 11.mtl
usemtl palette

# normals
vn -1 0 0
vn 1 0 0
vn 0 0 1
vn 0 0 -1
vn 0 -1 0
vn 0 1 0

# texcoords
vt 0.591797 0.5
vt 0.892578 0.5

# verts
v -2 0 2
v -2 0 -2
v -2 0.5 2
v -2 0.5 -2
v 0.5 0.1 -0.9
v 0.5 0.1 -2
v 0.5 0.3 -0.9
v 0.5 0.3 -1
v 0.5 0.4 -1
v 0.5 0.4 -2
v 0.6 0.1 -0.7
v 0.6 0.1 -0.9
v 0.6 0.2 -0.7
v 0.6 0.2 -0.8
v 0.6 0.3 -0.8
v 0.6 0.3 -0.9
v 0.6 0.3 -1
v 0.6 0.4 -0.9
v 0.6 0.4 -1
v 0.6 0.4 -2
v 0.6 0.5 -1
v 0.6 0.5 -2
v 0.7 0.1 -0.6
v 0.7 0.1 -0.7
v 0.7 0.2 -0.6
v 0.7 0.2 -0.7
v 0.8 0.2 -0.6
v 0.8 0.2 -0.8
v 0.8 0.3 -0.6
v 0.8 0.3 -0.8
v 0.9 0.1 -0.5
v 0.9 0.1 -0.6
v 0.9 0.3 -0.5
v 0.9 0.3 -0.6
v 0.9 0.3 -0.9
v 0.9 0.4 -0.6
v 0.9 0.4 -0.9
v 1 0.3 -0.5
v 1 0.3 -0.6
v 1 0.4 -0.5
v 1 0.4 -0.6
v 1 0.4 -1
v 1 0.5 -0.6
v 1 0.5 -1
v -0.6 0.4 0.6
v -0.6 0.4 -2
v -0.6 0.5 0.6
v -0.6 0.5 -2
v -0.5 0.1 0.5
v -0.5 0.1 -2
v -0.5 0.4 0.5
v -0.5 0.4 -2
v 2 0 2
v 2 0 0.5
v 2 0 -0.5
v 2 0 -2
v 2 0.1 0.5
v 2 0.1 -0.5
v 2 0.4 0.6
v 2 0.4 0.5
v 2 0.4 -0.5
v 2 0.4 -0.6
v 2 0.5 2
v 2 0.5 0.6
v 2 0.5 -0.6
v 2 0.5 -2
v -2 0 2
v -2 0.5 2
v 2 0 2
v 2 0.5 2
v 0.9 0.1 -0.5
v 0.9 0.3 -0.5
v 1 0.3 -0.5
v 1 0.4 -0.5
v 2 0.1 -0.5
v 2 0.4 -0.5
v 0.7 0.1 -0.6
v 0.7 0.2 -0.6
v 0.8 0.2 -0.6
v 0.8 0.3 -0.6
v 0.9 0.1 -0.6
v 0.9 0.3 -0.6
v 0.9 0.4 -0.6
v 1 0.3 -0.6
v 1 0.4 -0.6
v 1 0.5 -0.6
v 2 0.4 -0.6
v 2 0.5 -0.6
v 0.6 0.1 -0.7
v 0.6 0.2 -0.7
v 0.7 0.1 -0.7
v 0.7 0.2 -0.7
v 0.6 0.2 -0.8
v 0.6 0.3 -0.8
v 0.8 0.2 -0.8
v 0.8 0.3 -0.8
v 0.5 0.1 -0.9
v 0.5 0.3 -0.9
v 0.6 0.1 -0.9
v 0.6 0.3 -0.9
v 0.6 0.4 -0.9
v 0.9 0.3 -0.9
v 0.9 0.4 -0.9
v 0.5 0.3 -1
v 0.5 0.4 -1
v 0.6 0.3 -1
v 0.6 0.4 -1
v 0.6 0.5 -1
v 1 0.4 -1
v 1 0.5 -1
v -0.6 0.4 0.6
v -0.6 0.5 0.6
v 2 0.4 0.6
v 2 0.5 0.6
v -0.5 0.1 0.5
v -0.5 0.4 0.5
v 2 0.1 0.5
v 2 0.4 0.5
v -2 0 -2
v -2 0.5 -2
v -0.6 0.4 -2
v -0.6 0.5 -2
v -0.5 0 -2
v -0.5 0.1 -2
v -0.5 0.4 -2
v 0.5 0 -2
v 0.5 0.1 -2
v 0.5 0.4 -2
v 0.6 0.4 -2
v 0.6 0.5 -2
v 2 0 -2
v 2 0.5 -2
v -2 0 2
v 2 0 2
v -0.5 0 0.5
v 2 0 0.5
v 0.9 0 -0.5
v 2 0 -0.5
v 0.7 0 -0.6
v 0.9 0 -0.6
v 0.6 0 -0.7
v 0.7 0 -0.7
v 0.5 0 -0.9
v 0.6 0 -0.9
v -2 0 -2
v -0.5 0 -2
v 0.5 0 -2
v 2 0 -2
v -0.5 0.1 0.5
v 2 0.1 0.5
v 0.9 0.1 -0.5
v 2 0.1 -0.5
v 0.7 0.1 -0.6
v 0.9 0.1 -0.6
v 0.6 0.1 -0.7
v 0.7 0.1 -0.7
v 0.5 0.1 -0.9
v 0.6 0.1 -0.9
v -0.5 0.1 -2
v 0.5 0.1 -2
v 0.7 0.2 -0.6
v 0.8 0.2 -0.6
v 0.6 0.2 -0.7
v 0.7 0.2 -0.7
v 0.6 0.2 -0.8
v 0.8 0.2 -0.8
v 0.9 0.3 -0.5
v 1 0.3 -0.5
v 0.8 0.3 -0.6
v 0.9 0.3 -0.6
v 1 0.3 -0.6
v 0.6 0.3 -0.8
v 0.8 0.3 -0.8
v 0.5 0.3 -0.9
v 0.6 0.3 -0.9
v 0.9 0.3 -0.9
v 0.5 0.3 -1
v 0.6 0.3 -1
v -0.6 0.4 0.6
v 2 0.4 0.6
v -0.5 0.4 0.5
v 2 0.4 0.5
v 1 0.4 -0.5
v 2 0.4 -0.5
v 0.9 0.4 -0.6
v 1 0.4 -0.6
v 2 0.4 -0.6
v 0.6 0.4 -0.9
v 0.9 0.4 -0.9
v 0.5 0.4 -1
v 0.6 0.4 -1
v 1 0.4 -1
v -0.6 0.4 -2
v -0.5 0.4 -2
v 0.5 0.4 -2
v 0.6 0.4 -2
v -2 0.5 2
v 2 0.5 2
v -0.6 0.5 0.6
v 2 0.5 0.6
v 1 0.5 -0.6
v 2 0.5 -0.6
v 0.6 0.5 -1
v 1 0.5 -1
v -2 0.5 -2
v -0.6 0.5 -2
v 0.6 0.5 -2
v 2 0.5 -2

# faces
f 3/2/1 2/2/1 1/2/1
f 4/2/1 2/2/1 3/2/1
f 7/2/1 6/2/1 5/2/1
f 8/2/1 6/2/1 7/2/1
f 9/2/1 6/2/1 8/2/1
f 10/2/1 6/2/1 9/2/1
f 13/2/1 12/2/1 11/2/1
f 14/2/1 12/2/1 13/2/1
f 15/2/1 12/2/1 14/2/1
f 16/2/1 12/2/1 15/2/1
f 18/2/1 17/2/1 16/2/1
f 19/2/1 17/2/1 18/2/1
f 21/2/1 20/2/1 19/2/1
f 22/2/1 20/2/1 21/2/1
f 25/2/1 24/2/1 23/2/1
f 26/2/1 24/2/1 25/2/1
f 29/2/1 28/2/1 27/2/1
f 30/2/1 28/2/1 29/2/1
f 33/2/1 32/2/1 31/2/1
f 34/2/1 32/2/1 33/2/1
f 36/2/1 35/2/1 34/2/1
f 37/2/1 35/2/1 36/2/1
f 40/2/1 39/2/1 38/2/1
f 41/2/1 39/2/1 40/2/1
f 43/2/1 42/2/1 41/2/1
f 44/2/1 42/2/1 43/2/1
f 45/2/2 46/2/2 47/2/2
f 47/2/2 46/2/2 48/2/2
f 49/2/2 50/2/2 51/2/2
f 51/2/2 50/2/2 52/2/2
f 53/2/2 54/2/2 57/2/2
f 54/1/2 55/1/2 57/1/2
f 55/2/2 56/2/2 58/2/2
f 57/1/2 55/1/2 58/1/2
f 53/2/2 57/2/2 59/2/2
f 59/2/2 57/2/2 60/2/2
f 58/2/2 56/2/2 61/2/2
f 61/2/2 56/2/2 62/2/2
f 53/2/2 59/2/2 63/2/2
f 63/2/2 59/2/2 64/2/2
f 62/2/2 56/2/2 65/2/2
f 65/2/2 56/2/2 66/2/2
f 69/2/3 68/2/3 67/2/3
f 70/2/3 68/2/3 69/2/3
f 73/2/3 72/2/3 71/2/3
f 75/2/3 73/2/3 71/2/3
f 75/2/3 74/2/3 73/2/3
f 76/2/3 74/2/3 75/2/3
f 79/2/3 78/2/3 77/2/3
f 81/2/3 79/2/3 77/2/3
f 81/2/3 80/2/3 79/2/3
f 82/2/3 80/2/3 81/2/3
f 84/2/3 83/2/3 82/2/3
f 85/2/3 83/2/3 84/2/3
f 87/2/3 86/2/3 85/2/3
f 88/2/3 86/2/3 87/2/3
f 91/2/3 90/2/3 89/2/3
f 92/2/3 90/2/3 91/2/3
f 95/2/3 94/2/3 93/2/3
f 96/2/3 94/2/3 95/2/3
f 99/2/3 98/2/3 97/2/3
f 100/2/3 98/2/3 99/2/3
f 102/2/3 101/2/3 100/2/3
f 103/2/3 101/2/3 102/2/3
f 106/2/3 105/2/3 104/2/3
f 107/2/3 105/2/3 106/2/3
f 109/2/3 108/2/3 107/2/3
f 110/2/3 108/2/3 109/2/3
f 111/2/4 112/2/4 113/2/4
f 113/2/4 112/2/4 114/2/4
f 115/2/4 116/2/4 117/2/4
f 117/2/4 116/2/4 118/2/4
f 119/2/4 120/2/4 121/2/4
f 121/2/4 120/2/4 122/2/4
f 119/2/4 121/2/4 123/2/4
f 123/2/4 121/2/4 124/2/4
f 124/2/4 121/2/4 125/2/4
f 123/1/4 124/1/4 126/1/4
f 126/1/4 124/1/4 127/1/4
f 126/2/4 127/2/4 129/2/4
f 127/2/4 128/2/4 129/2/4
f 126/2/4 129/2/4 131/2/4
f 129/2/4 130/2/4 131/2/4
f 131/2/4 130/2/4 132/2/4
f 135/2/5 134/2/5 133/2/5
f 136/2/5 134/2/5 135/2/5
f 137/1/5 136/1/5 135/1/5
f 138/1/5 136/1/5 137/1/5
f 139/1/5 137/1/5 135/1/5
f 140/2/5 138/2/5 137/2/5
f 140/1/5 137/1/5 139/1/5
f 141/1/5 139/1/5 135/1/5
f 142/2/5 140/2/5 139/2/5
f 142/1/5 139/1/5 141/1/5
f 143/1/5 141/1/5 135/1/5
f 144/2/5 142/2/5 141/2/5
f 144/1/5 141/1/5 143/1/5
f 145/2/5 135/2/5 133/2/5
f 146/1/5 143/1/5 135/1/5
f 146/2/5 135/2/5 145/2/5
f 147/2/5 144/2/5 143/2/5
f 147/1/5 143/1/5 146/1/5
f 148/2/5 142/2/5 144/2/5
f 148/2/5 144/2/5 147/2/5
f 148/2/5 138/2/5 140/2/5
f 148/2/5 140/2/5 142/2/5
f 149/1/6 150/1/6 151/1/6
f 151/1/6 150/1/6 152/1/6
f 149/1/6 151/1/6 153/1/6
f 153/1/6 151/1/6 154/1/6
f 149/1/6 153/1/6 155/1/6
f 155/1/6 153/1/6 156/1/6
f 149/1/6 155/1/6 157/1/6
f 157/1/6 155/1/6 158/1/6
f 149/1/6 157/1/6 159/1/6
f 159/1/6 157/1/6 160/1/6
f 161/2/6 162/2/6 164/2/6
f 163/2/6 164/2/6 165/2/6
f 164/2/6 162/2/6 166/2/6
f 165/2/6 164/2/6 166/2/6
f 167/2/6 168/2/6 170/2/6
f 170/2/6 168/2/6 171/2/6
f 169/2/6 170/2/6 173/2/6
f 172/2/6 173/2/6 175/2/6
f 173/2/6 170/2/6 176/2/6
f 175/2/6 173/2/6 176/2/6
f 174/2/6 175/2/6 177/2/6
f 177/2/6 175/2/6 178/2/6
f 179/2/6 180/2/6 181/2/6
f 181/2/6 180/2/6 182/2/6
f 183/2/6 184/2/6 186/2/6
f 186/2/6 184/2/6 187/2/6
f 185/2/6 186/2/6 189/2/6
f 188/2/6 189/2/6 191/2/6
f 189/2/6 186/2/6 192/2/6
f 191/2/6 189/2/6 192/2/6
f 179/2/6 181/2/6 193/2/6
f 193/2/6 181/2/6 194/2/6
f 190/2/6 191/2/6 195/2/6
f 195/2/6 191/2/6 196/2/6
f 197/2/6 198/2/6 199/2/6
f 199/2/6 198/2/6 200/2/6
f 201/2/6 202/2/6 204/2/6
f 197/2/6 199/2/6 205/2/6
f 205/2/6 199/2/6 206/2/6
f 203/2/6 204/2/6 207/2/6
f 204/2/6 202/2/6 208/2/6
f 207/2/6 204/2/6 208/2/6
