# MagicaVoxel @ Ephtracy

# group
o 

# material
mtllib 8.mtl
usemtl palette

# normals
vn -1 0 0
vn 1 0 0
vn 0 0 1
vn 0 0 -1
vn 0 -1 0
vn 0 1 0

# texcoords
vt 0.591797 0.5
vt 0.892578 0.5

# verts
v -2 0 2
v -2 0 -2
v -2 0.1 2
v -2 0.1 -2
v -2 0.5 2
v -2 0.5 -2
v -1.8 0.4 2
v -1.8 0.4 -1.8
v -1.8 0.5 2
v -1.8 0.5 -1.8
v -1.6 0.1 2
v -1.6 0.1 0.9
v -1.6 0.2 0.9
v -1.6 0.2 0.4
v -1.6 0.3 0.4
v -1.6 0.3 -1.6
v -1.6 0.4 2
v -1.6 0.4 -1.6
v -1.4 0.1 0.9
v -1.4 0.1 0.6
v -1.4 0.2 0.9
v -1.4 0.2 0.6
v -1.3 0.1 0.6
v -1.3 0.1 0.5
v -1.3 0.2 0.6
v -1.3 0.2 0.5
v -1.2 0.2 0.4
v -1.2 0.2 -0.6
v -1.2 0.3 0.4
v -1.2 0.3 -0.6
v -1.1 0.1 0.5
v -1.1 0.1 0.0999999
v -1.1 0.2 0.5
v -1.1 0.2 0.0999999
v -1 0.1 0.0999999
v -1 0.1 -0.2
v -1 0.2 0.0999999
v -1 0.2 -0.2
v -0.9 0.1 -0.2
v -0.9 0.1 -0.4
v -0.9 0.2 -0.2
v -0.9 0.2 -0.4
v -0.6 0.2 -0.6
v -0.6 0.2 -1.2
v -0.6 0.3 -0.6
v -0.6 0.3 -1.2
v -0.5 0.1 -0.4
v -0.5 0.1 -0.8
v -0.5 0.2 -0.4
v -0.5 0.2 -0.8
v -0.4 0.1 -0.8
v -0.4 0.1 -1
v -0.4 0.2 -0.8
v -0.4 0.2 -1
v -0.0999999 0.1 -1
v -0.0999999 0.1 -1.1
v -0.0999999 0.2 -1
v -0.0999999 0.2 -1.1
v 2.38419e-07 0.2 -1.2
v 2.38419e-07 0.2 -1.6
v 2.38419e-07 0.3 -1.2
v 2.38419e-07 0.3 -1.6
v 0.1 0.1 -1.1
v 0.1 0.1 -1.3
v 0.1 0.2 -1.1
v 0.1 0.2 -1.3
v 0.3 0.1 -1.3
v 0.3 0.1 -1.5
v 0.3 0.2 -1.3
v 0.3 0.2 -1.5
v 0.7 0.1 -1.5
v 0.7 0.1 -1.6
v 0.7 0.2 -1.5
v 0.7 0.2 -1.6
v 2 0 2
v 2 0 -2
v 2 0.1 2
v 2 0.1 -1.6
v 2 0.1 -2
v 2 0.4 -1.6
v 2 0.4 -1.8
v 2 0.5 -1.8
v 2 0.5 -2
v -2 0 2
v -2 0.1 2
v -2 0.5 2
v -1.8 0.4 2
v -1.8 0.5 2
v -1.6 0.1 2
v -1.6 0.4 2
v 2 0 2
v 2 0.1 2
v -1.6 0.1 0.9
v -1.6 0.2 0.9
v -1.4 0.1 0.9
v -1.4 0.2 0.9
v -1.4 0.1 0.6
v -1.4 0.2 0.6
v -1.3 0.1 0.6
v -1.3 0.2 0.6
v -1.3 0.1 0.5
v -1.3 0.2 0.5
v -1.1 0.1 0.5
v -1.1 0.2 0.5
v -1.6 0.2 0.4
v -1.6 0.3 0.4
v -1.2 0.2 0.4
v -1.2 0.3 0.4
v -1.1 0.1 0.0999999
v -1.1 0.2 0.0999999
v -1 0.1 0.0999999
v -1 0.2 0.0999999
v -1 0.1 -0.2
v -1 0.2 -0.2
v -0.9 0.1 -0.2
v -0.9 0.2 -0.2
v -0.9 0.1 -0.4
v -0.9 0.2 -0.4
v -0.5 0.1 -0.4
v -0.5 0.2 -0.4
v -1.2 0.2 -0.6
v -1.2 0.3 -0.6
v -0.6 0.2 -0.6
v -0.6 0.3 -0.6
v -0.5 0.1 -0.8
v -0.5 0.2 -0.8
v -0.4 0.1 -0.8
v -0.4 0.2 -0.8
v -0.4 0.1 -1
v -0.4 0.2 -1
v -0.0999999 0.1 -1
v -0.0999999 0.2 -1
v -0.0999999 0.1 -1.1
v -0.0999999 0.2 -1.1
v 0.1 0.1 -1.1
v 0.1 0.2 -1.1
v -0.6 0.2 -1.2
v -0.6 0.3 -1.2
v 2.38419e-07 0.2 -1.2
v 2.38419e-07 0.3 -1.2
v 0.1 0.1 -1.3
v 0.1 0.2 -1.3
v 0.3 0.1 -1.3
v 0.3 0.2 -1.3
v 0.3 0.1 -1.5
v 0.3 0.2 -1.5
v 0.7 0.1 -1.5
v 0.7 0.2 -1.5
v -1.6 0.3 -1.6
v -1.6 0.4 -1.6
v 2.38419e-07 0.2 -1.6
v 2.38419e-07 0.3 -1.6
v 0.7 0.1 -1.6
v 0.7 0.2 -1.6
v 2 0.1 -1.6
v 2 0.4 -1.6
v -1.8 0.4 -1.8
v -1.8 0.5 -1.8
v 2 0.4 -1.8
v 2 0.5 -1.8
v -2 0 -2
v -2 0.1 -2
v -2 0.5 -2
v 2 0 -2
v 2 0.1 -2
v 2 0.5 -2
v -2 0 2
v 2 0 2
v -2 0 -2
v 2 0 -2
v -1.6 0.1 2
v 2 0.1 2
v -1.6 0.1 0.9
v -1.4 0.1 0.9
v -1.4 0.1 0.6
v -1.3 0.1 0.6
v -1.3 0.1 0.5
v -1.1 0.1 0.5
v -1.1 0.1 0.0999999
v -1 0.1 0.0999999
v -1 0.1 -0.2
v -0.9 0.1 -0.2
v -0.9 0.1 -0.4
v -0.5 0.1 -0.4
v -0.5 0.1 -0.8
v -0.4 0.1 -0.8
v -0.4 0.1 -1
v -0.0999999 0.1 -1
v -0.0999999 0.1 -1.1
v 0.1 0.1 -1.1
v 0.1 0.1 -1.3
v 0.3 0.1 -1.3
v 0.3 0.1 -1.5
v 0.7 0.1 -1.5
v 0.7 0.1 -1.6
v 2 0.1 -1.6
v -1.6 0.2 0.9
v -1.4 0.2 0.9
v -1.4 0.2 0.6
v -1.3 0.2 0.6
v -1.3 0.2 0.5
v -1.1 0.2 0.5
v -1.6 0.2 0.4
v -1.2 0.2 0.4
v -1.1 0.2 0.0999999
v -1 0.2 0.0999999
v -1 0.2 -0.2
v -0.9 0.2 -0.2
v -0.9 0.2 -0.4
v -0.5 0.2 -0.4
v -1.2 0.2 -0.6
v -0.6 0.2 -0.6
v -0.5 0.2 -0.8
v -0.4 0.2 -0.8
v -0.4 0.2 -1
v -0.0999999 0.2 -1
v -0.0999999 0.2 -1.1
v 0.1 0.2 -1.1
v -0.6 0.2 -1.2
v 2.38419e-07 0.2 -1.2
v 0.1 0.2 -1.3
v 0.3 0.2 -1.3
v 0.3 0.2 -1.5
v 0.7 0.2 -1.5
v 2.38419e-07 0.2 -1.6
v 0.7 0.2 -1.6
v -1.6 0.3 0.4
v -1.2 0.3 0.4
v -1.2 0.3 -0.6
v -0.6 0.3 -0.6
v -0.6 0.3 -1.2
v 2.38419e-07 0.3 -1.2
v -1.6 0.3 -1.6
v 2.38419e-07 0.3 -1.6
v -1.8 0.4 2
v -1.6 0.4 2
v -1.6 0.4 -1.6
v 2 0.4 -1.6
v -1.8 0.4 -1.8
v 2 0.4 -1.8
v -2 0.5 2
v -1.8 0.5 2
v -1.8 0.5 -1.8
v 2 0.5 -1.8
v -2 0.5 -2
v 2 0.5 -2

# faces
f 3/1/1 2/1/1 1/1/1
f 4/1/1 2/1/1 3/1/1
f 5/2/1 4/2/1 3/2/1
f 6/2/1 4/2/1 5/2/1
f 7/2/2 8/2/2 9/2/2
f 9/2/2 8/2/2 10/2/2
f 11/2/2 12/2/2 13/2/2
f 13/2/2 14/2/2 15/2/2
f 11/2/2 13/2/2 17/2/2
f 15/2/2 16/2/2 17/2/2
f 13/2/2 15/2/2 17/2/2
f 17/2/2 16/2/2 18/2/2
f 19/2/2 20/2/2 21/2/2
f 21/2/2 20/2/2 22/2/2
f 23/2/2 24/2/2 25/2/2
f 25/2/2 24/2/2 26/2/2
f 27/2/2 28/2/2 29/2/2
f 29/2/2 28/2/2 30/2/2
f 31/2/2 32/2/2 33/2/2
f 33/2/2 32/2/2 34/2/2
f 35/2/2 36/2/2 37/2/2
f 37/2/2 36/2/2 38/2/2
f 39/2/2 40/2/2 41/2/2
f 41/2/2 40/2/2 42/2/2
f 43/2/2 44/2/2 45/2/2
f 45/2/2 44/2/2 46/2/2
f 47/2/2 48/2/2 49/2/2
f 49/2/2 48/2/2 50/2/2
f 51/2/2 52/2/2 53/2/2
f 53/2/2 52/2/2 54/2/2
f 55/2/2 56/2/2 57/2/2
f 57/2/2 56/2/2 58/2/2
f 59/2/2 60/2/2 61/2/2
f 61/2/2 60/2/2 62/2/2
f 63/2/2 64/2/2 65/2/2
f 65/2/2 64/2/2 66/2/2
f 67/2/2 68/2/2 69/2/2
f 69/2/2 68/2/2 70/2/2
f 71/2/2 72/2/2 73/2/2
f 73/2/2 72/2/2 74/2/2
f 75/1/2 76/1/2 77/1/2
f 77/1/2 76/1/2 78/1/2
f 78/1/2 76/1/2 79/1/2
f 78/2/2 79/2/2 80/2/2
f 80/2/2 79/2/2 81/2/2
f 81/2/2 79/2/2 82/2/2
f 82/2/2 79/2/2 83/2/2
f 87/2/3 86/2/3 85/2/3
f 88/2/3 86/2/3 87/2/3
f 89/1/3 85/1/3 84/1/3
f 89/2/3 87/2/3 85/2/3
f 90/2/3 87/2/3 89/2/3
f 91/1/3 89/1/3 84/1/3
f 92/1/3 89/1/3 91/1/3
f 95/2/3 94/2/3 93/2/3
f 96/2/3 94/2/3 95/2/3
f 99/2/3 98/2/3 97/2/3
f 100/2/3 98/2/3 99/2/3
f 103/2/3 102/2/3 101/2/3
f 104/2/3 102/2/3 103/2/3
f 107/2/3 106/2/3 105/2/3
f 108/2/3 106/2/3 107/2/3
f 111/2/3 110/2/3 109/2/3
f 112/2/3 110/2/3 111/2/3
f 115/2/3 114/2/3 113/2/3
f 116/2/3 114/2/3 115/2/3
f 119/2/3 118/2/3 117/2/3
f 120/2/3 118/2/3 119/2/3
f 123/2/3 122/2/3 121/2/3
f 124/2/3 122/2/3 123/2/3
f 127/2/3 126/2/3 125/2/3
f 128/2/3 126/2/3 127/2/3
f 131/2/3 130/2/3 129/2/3
f 132/2/3 130/2/3 131/2/3
f 135/2/3 134/2/3 133/2/3
f 136/2/3 134/2/3 135/2/3
f 139/2/3 138/2/3 137/2/3
f 140/2/3 138/2/3 139/2/3
f 143/2/3 142/2/3 141/2/3
f 144/2/3 142/2/3 143/2/3
f 147/2/3 146/2/3 145/2/3
f 148/2/3 146/2/3 147/2/3
f 152/2/3 150/2/3 149/2/3
f 154/2/3 152/2/3 151/2/3
f 155/2/3 154/2/3 153/2/3
f 156/2/3 150/2/3 152/2/3
f 156/2/3 154/2/3 155/2/3
f 156/2/3 152/2/3 154/2/3
f 159/2/3 158/2/3 157/2/3
f 160/2/3 158/2/3 159/2/3
f 161/1/4 162/1/4 164/1/4
f 162/2/4 163/2/4 165/2/4
f 164/1/4 162/1/4 165/1/4
f 165/2/4 163/2/4 166/2/4
f 169/1/5 168/1/5 167/1/5
f 170/1/5 168/1/5 169/1/5
f 171/1/6 172/1/6 173/1/6
f 173/1/6 172/1/6 174/1/6
f 174/1/6 172/1/6 175/1/6
f 175/1/6 172/1/6 176/1/6
f 176/1/6 172/1/6 177/1/6
f 177/1/6 172/1/6 178/1/6
f 178/1/6 172/1/6 179/1/6
f 179/1/6 172/1/6 180/1/6
f 180/1/6 172/1/6 181/1/6
f 181/1/6 172/1/6 182/1/6
f 182/1/6 172/1/6 183/1/6
f 183/1/6 172/1/6 184/1/6
f 184/1/6 172/1/6 185/1/6
f 185/1/6 172/1/6 186/1/6
f 186/1/6 172/1/6 187/1/6
f 187/1/6 172/1/6 188/1/6
f 188/1/6 172/1/6 189/1/6
f 189/1/6 172/1/6 190/1/6
f 190/1/6 172/1/6 191/1/6
f 191/1/6 172/1/6 192/1/6
f 192/1/6 172/1/6 193/1/6
f 193/1/6 172/1/6 194/1/6
f 194/1/6 172/1/6 195/1/6
f 195/1/6 172/1/6 196/1/6
f 197/2/6 198/2/6 199/2/6
f 199/2/6 200/2/6 201/2/6
f 197/2/6 199/2/6 203/2/6
f 201/2/6 202/2/6 203/2/6
f 199/2/6 201/2/6 203/2/6
f 203/2/6 202/2/6 204/2/6
f 204/2/6 202/2/6 205/2/6
f 205/2/6 206/2/6 207/2/6
f 207/2/6 208/2/6 209/2/6
f 204/2/6 205/2/6 211/2/6
f 209/2/6 210/2/6 211/2/6
f 207/2/6 209/2/6 211/2/6
f 205/2/6 207/2/6 211/2/6
f 211/2/6 210/2/6 212/2/6
f 212/2/6 210/2/6 213/2/6
f 213/2/6 214/2/6 215/2/6
f 215/2/6 216/2/6 217/2/6
f 212/2/6 213/2/6 219/2/6
f 217/2/6 218/2/6 219/2/6
f 215/2/6 217/2/6 219/2/6
f 213/2/6 215/2/6 219/2/6
f 219/2/6 218/2/6 220/2/6
f 220/2/6 218/2/6 221/2/6
f 221/2/6 222/2/6 223/2/6
f 220/2/6 221/2/6 225/2/6
f 223/2/6 224/2/6 225/2/6
f 221/2/6 223/2/6 225/2/6
f 225/2/6 224/2/6 226/2/6
f 227/2/6 228/2/6 229/2/6
f 229/2/6 230/2/6 231/2/6
f 227/2/6 229/2/6 233/2/6
f 231/2/6 232/2/6 233/2/6
f 229/2/6 231/2/6 233/2/6
f 233/2/6 232/2/6 234/2/6
f 235/2/6 236/2/6 237/2/6
f 235/2/6 237/2/6 239/2/6
f 237/2/6 238/2/6 239/2/6
f 239/2/6 238/2/6 240/2/6
f 241/2/6 242/2/6 243/2/6
f 241/2/6 243/2/6 245/2/6
f 243/2/6 244/2/6 245/2/6
f 245/2/6 244/2/6 246/2/6
