# MagicaVoxel @ Ephtracy

# group
o 

# material
mtllib Vulcano2.mtl
usemtl palette

# normals
vn -1 0 0
vn 1 0 0
vn 0 0 1
vn 0 0 -1
vn 0 -1 0
vn 0 1 0

# texcoords
vt 0.841797 0.5
vt 0.986328 0.5

# verts
v -2 0 2
v -2 0 -2
v -2 0.4 2
v -2 0.4 -2
v -1.3 0.4 2
v -1.3 0.4 -2
v -1.3 0.5 2
v -1.3 0.5 -2
v -0.7 0.4 2
v -0.7 0.4 -2
v -0.7 0.5 2
v -0.7 0.5 -2
v -1.2 0.4 2
v -1.2 0.4 -2
v -1.2 0.5 2
v -1.2 0.5 -2
v -0.6 0.4 2
v -0.6 0.4 -2
v -0.6 0.5 2
v -0.6 0.5 -2
v 2 0 2
v 2 0 -2
v 2 0.4 2
v 2 0.4 -2
v -2 0 2
v -2 0.4 2
v -1.3 0.4 2
v -1.3 0.5 2
v -1.2 0.4 2
v -1.2 0.5 2
v -1 0.3 2
v -1 0.4 2
v -0.9 0.3 2
v -0.9 0.4 2
v -0.7 0.4 2
v -0.7 0.5 2
v -0.6 0.4 2
v -0.6 0.5 2
v 2 0 2
v 2 0.4 2
v -2 0 -2
v -2 0.4 -2
v -1.3 0.4 -2
v -1.3 0.5 -2
v -1.2 0.4 -2
v -1.2 0.5 -2
v -1 0.3 -2
v -1 0.4 -2
v -0.9 0.3 -2
v -0.9 0.4 -2
v -0.7 0.4 -2
v -0.7 0.5 -2
v -0.6 0.4 -2
v -0.6 0.5 -2
v 2 0 -2
v 2 0.4 -2
v -2 0 2
v 2 0 2
v -2 0 -2
v 2 0 -2
v -2 0.4 2
v -1.3 0.4 2
v -1.2 0.4 2
v -1 0.4 2
v -0.9 0.4 2
v -0.7 0.4 2
v -0.6 0.4 2
v 2 0.4 2
v -2 0.4 -2
v -1.3 0.4 -2
v -1.2 0.4 -2
v -1 0.4 -2
v -0.9 0.4 -2
v -0.7 0.4 -2
v -0.6 0.4 -2
v 2 0.4 -2
v -1.3 0.5 2
v -1.2 0.5 2
v -0.7 0.5 2
v -0.6 0.5 2
v -1.3 0.5 -2
v -1.2 0.5 -2
v -0.7 0.5 -2
v -0.6 0.5 -2

# faces
f 3/2/1 2/2/1 1/2/1
f 4/2/1 2/2/1 3/2/1
f 7/1/1 6/1/1 5/1/1
f 8/1/1 6/1/1 7/1/1
f 11/1/1 10/1/1 9/1/1
f 12/1/1 10/1/1 11/1/1
f 13/1/2 14/1/2 15/1/2
f 15/1/2 14/1/2 16/1/2
f 17/1/2 18/1/2 19/1/2
f 19/1/2 18/1/2 20/1/2
f 21/2/2 22/2/2 23/2/2
f 23/2/2 22/2/2 24/2/2
f 27/2/3 26/2/3 25/2/3
f 29/2/3 27/2/3 25/2/3
f 29/1/3 28/1/3 27/1/3
f 30/1/3 28/1/3 29/1/3
f 31/2/3 29/2/3 25/2/3
f 32/2/3 29/2/3 31/2/3
f 33/2/3 31/2/3 25/2/3
f 33/1/3 32/1/3 31/1/3
f 34/1/3 32/1/3 33/1/3
f 35/2/3 34/2/3 33/2/3
f 37/2/3 35/2/3 33/2/3
f 37/1/3 36/1/3 35/1/3
f 38/1/3 36/1/3 37/1/3
f 39/2/3 33/2/3 25/2/3
f 39/2/3 37/2/3 33/2/3
f 40/2/3 37/2/3 39/2/3
f 41/2/4 42/2/4 43/2/4
f 41/2/4 43/2/4 45/2/4
f 43/1/4 44/1/4 45/1/4
f 45/1/4 44/1/4 46/1/4
f 41/2/4 45/2/4 47/2/4
f 47/2/4 45/2/4 48/2/4
f 41/2/4 47/2/4 49/2/4
f 47/1/4 48/1/4 49/1/4
f 49/1/4 48/1/4 50/1/4
f 49/2/4 50/2/4 51/2/4
f 49/2/4 51/2/4 53/2/4
f 51/1/4 52/1/4 53/1/4
f 53/1/4 52/1/4 54/1/4
f 41/2/4 49/2/4 55/2/4
f 49/2/4 53/2/4 55/2/4
f 55/2/4 53/2/4 56/2/4
f 59/2/5 58/2/5 57/2/5
f 60/2/5 58/2/5 59/2/5
f 61/2/6 62/2/6 69/2/6
f 69/2/6 62/2/6 70/2/6
f 63/2/6 64/2/6 71/2/6
f 64/1/6 65/1/6 72/1/6
f 71/2/6 64/2/6 72/2/6
f 65/2/6 66/2/6 73/2/6
f 72/1/6 65/1/6 73/1/6
f 73/2/6 66/2/6 74/2/6
f 67/2/6 68/2/6 75/2/6
f 75/2/6 68/2/6 76/2/6
f 77/1/6 78/1/6 81/1/6
f 81/1/6 78/1/6 82/1/6
f 79/1/6 80/1/6 83/1/6
f 83/1/6 80/1/6 84/1/6
