# MagicaVoxel @ Ephtracy

# group
o 

# material
mtllib Vulcano1 - 1.mtl
usemtl palette

# normals
vn -1 0 0
vn 1 0 0
vn 0 0 1
vn 0 0 -1
vn 0 -1 0
vn 0 1 0

# texcoords
vt 0.841797 0.5
vt 0.986328 0.5
vt 0.994141 0.5

# verts
v -2 0 2
v -2 0 -2
v -2 0.4 2
v -2 0.4 -2
v -1.3 0.4 2
v -1.3 0.4 -1.1
v -1.3 0.5 2
v -1.3 0.5 -1.1
v -0.7 0.4 2
v -0.7 0.4 -0.7
v -0.7 0.5 2
v -0.7 0.5 -0.7
v -0.2 0.4 -1.1
v -0.2 0.4 -2
v -0.2 0.5 -1.1
v -0.2 0.5 -2
v 2.38419e-07 0.4 -0.3
v 2.38419e-07 0.4 -0.6
v 2.38419e-07 0.5 -0.3
v 2.38419e-07 0.5 -0.6
v 0.1 0.4 1
v 0.1 0.4 0.7
v 0.1 0.4 0.4
v 0.1 0.5 1
v 0.1 0.5 0.7
v 0.1 0.5 0.4
v 0.2 0.4 -0.2
v 0.2 0.4 -0.3
v 0.2 0.5 -0.2
v 0.2 0.5 -0.3
v 0.3 0.4 -0.1
v 0.3 0.4 -0.2
v 0.3 0.4 -0.5
v 0.3 0.4 -0.7
v 0.3 0.5 -0.1
v 0.3 0.5 -0.2
v 0.3 0.5 -0.5
v 0.3 0.5 -0.7
v 0.4 0.4 0.4
v 0.4 0.4 -0.1
v 0.4 0.4 -0.4
v 0.4 0.4 -0.5
v 0.4 0.4 -0.7
v 0.4 0.4 -2
v 0.4 0.5 0.4
v 0.4 0.5 -0.1
v 0.4 0.5 -0.4
v 0.4 0.5 -0.5
v 0.4 0.5 -0.7
v 0.4 0.5 -2
v 0.5 0.4 -0.3
v 0.5 0.4 -0.4
v 0.5 0.5 -0.3
v 0.5 0.5 -0.4
v 0.6 0.4 -0.2
v 0.6 0.4 -0.3
v 0.6 0.5 -0.2
v 0.6 0.5 -0.3
v 0.7 0.4 0.3
v 0.7 0.4 -0.2
v 0.7 0.5 0.3
v 0.7 0.5 -0.2
v -1.2 0.4 2
v -1.2 0.4 -1
v -1.2 0.5 2
v -1.2 0.5 -1
v -0.6 0.4 2
v -0.6 0.4 -0.6
v -0.6 0.5 2
v -0.6 0.5 -0.6
v -0.0999999 0.4 -1
v -0.0999999 0.4 -2
v -0.0999999 0.5 -1
v -0.0999999 0.5 -2
v 0.1 0.4 -0.4
v 0.1 0.4 -0.7
v 0.1 0.5 -0.4
v 0.1 0.5 -0.7
v 0.2 0.4 -0.3
v 0.2 0.4 -0.4
v 0.2 0.5 -0.3
v 0.2 0.5 -0.4
v 0.3 0.4 -0.2
v 0.3 0.4 -0.3
v 0.3 0.5 -0.2
v 0.3 0.5 -0.3
v 0.4 0.4 -0.1
v 0.4 0.4 -0.2
v 0.4 0.4 -0.5
v 0.4 0.4 -0.6
v 0.4 0.5 -0.1
v 0.4 0.5 -0.2
v 0.4 0.5 -0.5
v 0.4 0.5 -0.6
v 0.5 0.4 0.3
v 0.5 0.4 -0.1
v 0.5 0.4 -0.4
v 0.5 0.4 -0.5
v 0.5 0.4 -0.6
v 0.5 0.4 -2
v 0.5 0.5 0.3
v 0.5 0.5 -0.1
v 0.5 0.5 -0.4
v 0.5 0.5 -0.5
v 0.5 0.5 -0.6
v 0.5 0.5 -2
v 0.6 0.4 -0.3
v 0.6 0.4 -0.4
v 0.6 0.5 -0.3
v 0.6 0.5 -0.4
v 0.7 0.4 -0.2
v 0.7 0.4 -0.3
v 0.7 0.5 -0.2
v 0.7 0.5 -0.3
v 0.8 0.4 0.2
v 0.8 0.4 -0.2
v 0.8 0.5 0.2
v 0.8 0.5 -0.2
v 1.3 0.4 1
v 1.3 0.4 0.9
v 1.3 0.4 0.4
v 1.3 0.4 0.2
v 1.3 0.5 1
v 1.3 0.5 0.9
v 1.3 0.5 0.4
v 1.3 0.5 0.2
v 2 0 2
v 2 0 -2
v 2 0.4 2
v 2 0.4 -2
v -2 0 2
v -2 0.4 2
v -1.3 0.4 2
v -1.3 0.5 2
v -1.2 0.4 2
v -1.2 0.5 2
v -1 0.3 2
v -1 0.4 2
v -0.9 0.3 2
v -0.9 0.4 2
v -0.7 0.4 2
v -0.7 0.5 2
v -0.6 0.4 2
v -0.6 0.5 2
v 2 0 2
v 2 0.4 2
v 0.1 0.4 1
v 0.1 0.5 1
v 0.5 0.4 1
v 0.5 0.5 1
v 0.6 0.4 1
v 0.6 0.5 1
v 1 0.4 1
v 1 0.5 1
v 1.3 0.4 1
v 1.3 0.5 1
v 0.3 0.4 -0.1
v 0.3 0.5 -0.1
v 0.4 0.4 -0.1
v 0.4 0.5 -0.1
v 0.2 0.4 -0.2
v 0.2 0.5 -0.2
v 0.3 0.4 -0.2
v 0.3 0.5 -0.2
v 0.6 0.4 -0.2
v 0.6 0.5 -0.2
v 0.7 0.4 -0.2
v 0.7 0.5 -0.2
v 2.38419e-07 0.4 -0.3
v 2.38419e-07 0.5 -0.3
v 0.2 0.4 -0.3
v 0.2 0.5 -0.3
v 0.5 0.4 -0.3
v 0.5 0.5 -0.3
v 0.6 0.4 -0.3
v 0.6 0.5 -0.3
v 0.4 0.4 -0.4
v 0.4 0.5 -0.4
v 0.5 0.4 -0.4
v 0.5 0.5 -0.4
v 0.3 0.4 -0.5
v 0.3 0.5 -0.5
v 0.4 0.4 -0.5
v 0.4 0.5 -0.5
v -0.6 0.4 -0.6
v -0.6 0.5 -0.6
v 2.38419e-07 0.4 -0.6
v 2.38419e-07 0.5 -0.6
v 0.4 0.4 -0.6
v 0.4 0.5 -0.6
v 0.5 0.4 -0.6
v 0.5 0.5 -0.6
v -1.2 0.4 -1
v -1.2 0.5 -1
v -0.0999999 0.4 -1
v -0.0999999 0.5 -1
v 0.1 0.4 0.4
v 0.1 0.5 0.4
v 0.2 0.4 0.4
v 0.2 0.5 0.4
v 0.4 0.4 0.4
v 0.4 0.5 0.4
v 0.5 0.4 0.3
v 0.5 0.5 0.3
v 0.7 0.4 0.3
v 0.7 0.5 0.3
v 0.8 0.4 0.2
v 0.8 0.5 0.2
v 1 0.4 0.2
v 1 0.5 0.2
v 1.3 0.4 0.2
v 1.3 0.5 0.2
v 0.4 0.4 -0.1
v 0.4 0.5 -0.1
v 0.5 0.4 -0.1
v 0.5 0.5 -0.1
v 0.3 0.4 -0.2
v 0.3 0.5 -0.2
v 0.4 0.4 -0.2
v 0.4 0.5 -0.2
v 0.7 0.4 -0.2
v 0.7 0.5 -0.2
v 0.8 0.4 -0.2
v 0.8 0.5 -0.2
v 0.2 0.4 -0.3
v 0.2 0.5 -0.3
v 0.3 0.4 -0.3
v 0.3 0.5 -0.3
v 0.6 0.4 -0.3
v 0.6 0.5 -0.3
v 0.7 0.4 -0.3
v 0.7 0.5 -0.3
v 0.1 0.4 -0.4
v 0.1 0.5 -0.4
v 0.2 0.4 -0.4
v 0.2 0.5 -0.4
v 0.5 0.4 -0.4
v 0.5 0.5 -0.4
v 0.6 0.4 -0.4
v 0.6 0.5 -0.4
v 0.4 0.4 -0.5
v 0.4 0.5 -0.5
v 0.5 0.4 -0.5
v 0.5 0.5 -0.5
v -0.7 0.4 -0.7
v -0.7 0.5 -0.7
v 0.1 0.4 -0.7
v 0.1 0.5 -0.7
v 0.3 0.4 -0.7
v 0.3 0.5 -0.7
v 0.4 0.4 -0.7
v 0.4 0.5 -0.7
v -1.3 0.4 -1.1
v -1.3 0.5 -1.1
v -0.2 0.4 -1.1
v -0.2 0.5 -1.1
v -2 0 -2
v -2 0.4 -2
v -0.2 0.4 -2
v -0.2 0.5 -2
v -0.0999999 0.4 -2
v -0.0999999 0.5 -2
v 0.1 0.3 -2
v 0.1 0.4 -2
v 0.2 0.3 -2
v 0.2 0.4 -2
v 0.4 0.4 -2
v 0.4 0.5 -2
v 0.5 0.4 -2
v 0.5 0.5 -2
v 0.8 0.3 -2
v 0.8 0.4 -2
v 0.9 0.3 -2
v 0.9 0.4 -2
v 1.2 0.3 -2
v 1.2 0.4 -2
v 1.5 0.3 -2
v 1.5 0.4 -2
v 1.6 0.3 -2
v 1.6 0.4 -2
v 1.7 0.3 -2
v 1.7 0.4 -2
v 1.8 0.3 -2
v 1.8 0.4 -2
v 1.9 0.3 -2
v 1.9 0.4 -2
v 2 0 -2
v 2 0.4 -2
v -2 0 2
v 2 0 2
v -2 0 -2
v 2 0 -2
v -2 0.4 2
v -1.3 0.4 2
v -1.2 0.4 2
v -1 0.4 2
v -0.9 0.4 2
v -0.7 0.4 2
v -0.6 0.4 2
v 2 0.4 2
v 0.1 0.4 1
v 0.5 0.4 1
v 0.6 0.4 1
v 1 0.4 1
v 1.3 0.4 1
v 1.3 0.4 0.9
v 0.1 0.4 0.7
v 0.1 0.4 0.4
v 0.2 0.4 0.4
v 0.4 0.4 0.4
v 1.3 0.4 0.4
v 0.5 0.4 0.3
v 0.7 0.4 0.3
v 0.8 0.4 0.2
v 1 0.4 0.2
v 1.3 0.4 0.2
v 0.3 0.4 -0.1
v 0.4 0.4 -0.1
v 0.5 0.4 -0.1
v 0.2 0.4 -0.2
v 0.3 0.4 -0.2
v 0.4 0.4 -0.2
v 0.6 0.4 -0.2
v 0.7 0.4 -0.2
v 0.8 0.4 -0.2
v 2.38419e-07 0.4 -0.3
v 0.2 0.4 -0.3
v 0.3 0.4 -0.3
v 0.5 0.4 -0.3
v 0.6 0.4 -0.3
v 0.7 0.4 -0.3
v 0.1 0.4 -0.4
v 0.2 0.4 -0.4
v 0.4 0.4 -0.4
v 0.5 0.4 -0.4
v 0.6 0.4 -0.4
v 0.3 0.4 -0.5
v 0.4 0.4 -0.5
v 0.5 0.4 -0.5
v -0.6 0.4 -0.6
v 2.38419e-07 0.4 -0.6
v 0.4 0.4 -0.6
v 0.5 0.4 -0.6
v -0.7 0.4 -0.7
v 0.1 0.4 -0.7
v 0.3 0.4 -0.7
v 0.4 0.4 -0.7
v -0.9 0.4 -0.8
v 0.2 0.4 -0.8
v -1 0.4 -0.9
v 0.1 0.4 -0.9
v -1.2 0.4 -1
v -0.0999999 0.4 -1
v -1.3 0.4 -1.1
v -0.2 0.4 -1.1
v 0.6 0.4 -1.7
v 0.8 0.4 -1.7
v 0.9 0.4 -1.7
v 1.1 0.4 -1.7
v 1.2 0.4 -1.7
v 1.5 0.4 -1.7
v 1.6 0.4 -1.7
v 1.7 0.4 -1.7
v 1.8 0.4 -1.7
v 1.9 0.4 -1.7
v 0.6 0.4 -1.8
v 0.7 0.4 -1.8
v 1 0.4 -1.8
v 1.1 0.4 -1.8
v 1.3 0.4 -1.8
v 1.4 0.4 -1.8
v 1.6 0.4 -1.8
v 1.7 0.4 -1.8
v 1.8 0.4 -1.8
v 1.9 0.4 -1.8
v 0.7 0.4 -1.9
v 0.8 0.4 -1.9
v 0.9 0.4 -1.9
v 1 0.4 -1.9
v 1.3 0.4 -1.9
v 1.4 0.4 -1.9
v 1.6 0.4 -1.9
v 1.7 0.4 -1.9
v 1.8 0.4 -1.9
v 1.9 0.4 -1.9
v -2 0.4 -2
v -0.2 0.4 -2
v -0.0999999 0.4 -2
v 0.1 0.4 -2
v 0.2 0.4 -2
v 0.4 0.4 -2
v 0.5 0.4 -2
v 0.8 0.4 -2
v 0.9 0.4 -2
v 1.2 0.4 -2
v 1.5 0.4 -2
v 1.6 0.4 -2
v 1.7 0.4 -2
v 1.8 0.4 -2
v 1.9 0.4 -2
v 2 0.4 -2
v -1.3 0.5 2
v -1.2 0.5 2
v -0.7 0.5 2
v -0.6 0.5 2
v 0.1 0.5 1
v 0.5 0.5 1
v 0.6 0.5 1
v 1 0.5 1
v 1.3 0.5 1
v 0.7 0.5 0.9
v 0.8 0.5 0.9
v 1.2 0.5 0.9
v 1.3 0.5 0.9
v 0.2 0.5 0.8
v 0.4 0.5 0.8
v 0.6 0.5 0.8
v 0.7 0.5 0.8
v 1 0.5 0.8
v 1.2 0.5 0.8
v 0.1 0.5 0.7
v 0.2 0.5 0.7
v 0.5 0.5 0.7
v 0.8 0.5 0.7
v 0.2 0.5 0.5
v 0.4 0.5 0.5
v 0.1 0.5 0.4
v 0.2 0.5 0.4
v 0.4 0.5 0.4
v 1 0.5 0.4
v 1.3 0.5 0.4
v 0.5 0.5 0.3
v 0.7 0.5 0.3
v 0.8 0.5 0.2
v 1 0.5 0.2
v 1.3 0.5 0.2
v 0.3 0.5 -0.1
v 0.4 0.5 -0.1
v 0.5 0.5 -0.1
v 0.2 0.5 -0.2
v 0.3 0.5 -0.2
v 0.4 0.5 -0.2
v 0.6 0.5 -0.2
v 0.7 0.5 -0.2
v 0.8 0.5 -0.2
v 2.38419e-07 0.5 -0.3
v 0.2 0.5 -0.3
v 0.3 0.5 -0.3
v 0.5 0.5 -0.3
v 0.6 0.5 -0.3
v 0.7 0.5 -0.3
v 0.1 0.5 -0.4
v 0.2 0.5 -0.4
v 0.4 0.5 -0.4
v 0.5 0.5 -0.4
v 0.6 0.5 -0.4
v 0.3 0.5 -0.5
v 0.4 0.5 -0.5
v 0.5 0.5 -0.5
v -0.6 0.5 -0.6
v 2.38419e-07 0.5 -0.6
v 0.4 0.5 -0.6
v 0.5 0.5 -0.6
v -0.7 0.5 -0.7
v 0.1 0.5 -0.7
v 0.3 0.5 -0.7
v 0.4 0.5 -0.7
v -1.2 0.5 -1
v -0.0999999 0.5 -1
v -1.3 0.5 -1.1
v -0.2 0.5 -1.1
v -0.2 0.5 -2
v -0.0999999 0.5 -2
v 0.4 0.5 -2
v 0.5 0.5 -2

# faces
f 3/2/1 2/2/1 1/2/1
f 4/2/1 2/2/1 3/2/1
f 7/1/1 6/1/1 5/1/1
f 8/1/1 6/1/1 7/1/1
f 11/1/1 10/1/1 9/1/1
f 12/1/1 10/1/1 11/1/1
f 15/1/1 14/1/1 13/1/1
f 16/1/1 14/1/1 15/1/1
f 19/1/1 18/1/1 17/1/1
f 20/1/1 18/1/1 19/1/1
f 24/1/1 22/1/1 21/1/1
f 25/3/1 23/3/1 22/3/1
f 25/1/1 22/1/1 24/1/1
f 26/3/1 23/3/1 25/3/1
f 29/1/1 28/1/1 27/1/1
f 30/1/1 28/1/1 29/1/1
f 35/1/1 32/1/1 31/1/1
f 36/1/1 32/1/1 35/1/1
f 37/1/1 34/1/1 33/1/1
f 38/1/1 34/1/1 37/1/1
f 45/1/1 40/1/1 39/1/1
f 46/1/1 40/1/1 45/1/1
f 47/1/1 42/1/1 41/1/1
f 48/1/1 42/1/1 47/1/1
f 49/1/1 44/1/1 43/1/1
f 50/1/1 44/1/1 49/1/1
f 53/1/1 52/1/1 51/1/1
f 54/1/1 52/1/1 53/1/1
f 57/1/1 56/1/1 55/1/1
f 58/1/1 56/1/1 57/1/1
f 61/1/1 60/1/1 59/1/1
f 62/1/1 60/1/1 61/1/1
f 63/1/2 64/1/2 65/1/2
f 65/1/2 64/1/2 66/1/2
f 67/1/2 68/1/2 69/1/2
f 69/1/2 68/1/2 70/1/2
f 71/1/2 72/1/2 73/1/2
f 73/1/2 72/1/2 74/1/2
f 75/1/2 76/1/2 77/1/2
f 77/1/2 76/1/2 78/1/2
f 79/1/2 80/1/2 81/1/2
f 81/1/2 80/1/2 82/1/2
f 83/1/2 84/1/2 85/1/2
f 85/1/2 84/1/2 86/1/2
f 87/1/2 88/1/2 91/1/2
f 91/1/2 88/1/2 92/1/2
f 89/1/2 90/1/2 93/1/2
f 93/1/2 90/1/2 94/1/2
f 95/1/2 96/1/2 101/1/2
f 101/1/2 96/1/2 102/1/2
f 97/1/2 98/1/2 103/1/2
f 103/1/2 98/1/2 104/1/2
f 99/1/2 100/1/2 105/1/2
f 105/1/2 100/1/2 106/1/2
f 107/1/2 108/1/2 109/1/2
f 109/1/2 108/1/2 110/1/2
f 111/1/2 112/1/2 113/1/2
f 113/1/2 112/1/2 114/1/2
f 115/1/2 116/1/2 117/1/2
f 117/1/2 116/1/2 118/1/2
f 119/3/2 120/3/2 123/3/2
f 120/1/2 121/1/2 124/1/2
f 123/3/2 120/3/2 124/3/2
f 121/3/2 122/3/2 125/3/2
f 124/1/2 121/1/2 125/1/2
f 125/3/2 122/3/2 126/3/2
f 127/2/2 128/2/2 129/2/2
f 129/2/2 128/2/2 130/2/2
f 133/2/3 132/2/3 131/2/3
f 135/2/3 133/2/3 131/2/3
f 135/1/3 134/1/3 133/1/3
f 136/1/3 134/1/3 135/1/3
f 137/2/3 135/2/3 131/2/3
f 138/2/3 135/2/3 137/2/3
f 139/2/3 137/2/3 131/2/3
f 139/1/3 138/1/3 137/1/3
f 140/1/3 138/1/3 139/1/3
f 141/2/3 140/2/3 139/2/3
f 143/2/3 141/2/3 139/2/3
f 143/1/3 142/1/3 141/1/3
f 144/1/3 142/1/3 143/1/3
f 145/2/3 139/2/3 131/2/3
f 145/2/3 143/2/3 139/2/3
f 146/2/3 143/2/3 145/2/3
f 149/1/3 148/1/3 147/1/3
f 150/1/3 148/1/3 149/1/3
f 151/3/3 150/3/3 149/3/3
f 152/3/3 150/3/3 151/3/3
f 153/1/3 152/1/3 151/1/3
f 154/1/3 152/1/3 153/1/3
f 155/3/3 154/3/3 153/3/3
f 156/3/3 154/3/3 155/3/3
f 159/1/3 158/1/3 157/1/3
f 160/1/3 158/1/3 159/1/3
f 163/1/3 162/1/3 161/1/3
f 164/1/3 162/1/3 163/1/3
f 167/1/3 166/1/3 165/1/3
f 168/1/3 166/1/3 167/1/3
f 171/1/3 170/1/3 169/1/3
f 172/1/3 170/1/3 171/1/3
f 175/1/3 174/1/3 173/1/3
f 176/1/3 174/1/3 175/1/3
f 179/1/3 178/1/3 177/1/3
f 180/1/3 178/1/3 179/1/3
f 183/1/3 182/1/3 181/1/3
f 184/1/3 182/1/3 183/1/3
f 187/1/3 186/1/3 185/1/3
f 188/1/3 186/1/3 187/1/3
f 191/1/3 190/1/3 189/1/3
f 192/1/3 190/1/3 191/1/3
f 195/1/3 194/1/3 193/1/3
f 196/1/3 194/1/3 195/1/3
f 197/3/4 198/3/4 199/3/4
f 199/3/4 198/3/4 200/3/4
f 199/1/4 200/1/4 201/1/4
f 201/1/4 200/1/4 202/1/4
f 203/1/4 204/1/4 205/1/4
f 205/1/4 204/1/4 206/1/4
f 207/1/4 208/1/4 209/1/4
f 209/1/4 208/1/4 210/1/4
f 209/3/4 210/3/4 211/3/4
f 211/3/4 210/3/4 212/3/4
f 213/1/4 214/1/4 215/1/4
f 215/1/4 214/1/4 216/1/4
f 217/1/4 218/1/4 219/1/4
f 219/1/4 218/1/4 220/1/4
f 221/1/4 222/1/4 223/1/4
f 223/1/4 222/1/4 224/1/4
f 225/1/4 226/1/4 227/1/4
f 227/1/4 226/1/4 228/1/4
f 229/1/4 230/1/4 231/1/4
f 231/1/4 230/1/4 232/1/4
f 233/1/4 234/1/4 235/1/4
f 235/1/4 234/1/4 236/1/4
f 237/1/4 238/1/4 239/1/4
f 239/1/4 238/1/4 240/1/4
f 241/1/4 242/1/4 243/1/4
f 243/1/4 242/1/4 244/1/4
f 245/1/4 246/1/4 247/1/4
f 247/1/4 246/1/4 248/1/4
f 249/1/4 250/1/4 251/1/4
f 251/1/4 250/1/4 252/1/4
f 253/1/4 254/1/4 255/1/4
f 255/1/4 254/1/4 256/1/4
f 257/2/4 258/2/4 259/2/4
f 257/2/4 259/2/4 261/2/4
f 259/1/4 260/1/4 261/1/4
f 261/1/4 260/1/4 262/1/4
f 257/2/4 261/2/4 263/2/4
f 263/2/4 261/2/4 264/2/4
f 257/2/4 263/2/4 265/2/4
f 263/1/4 264/1/4 265/1/4
f 265/1/4 264/1/4 266/1/4
f 265/2/4 266/2/4 267/2/4
f 265/2/4 267/2/4 269/2/4
f 267/1/4 268/1/4 269/1/4
f 269/1/4 268/1/4 270/1/4
f 257/2/4 265/2/4 271/2/4
f 265/2/4 269/2/4 271/2/4
f 271/2/4 269/2/4 272/2/4
f 257/2/4 271/2/4 273/2/4
f 271/1/4 272/1/4 273/1/4
f 273/1/4 272/1/4 274/1/4
f 257/2/4 273/2/4 275/2/4
f 273/2/4 274/2/4 275/2/4
f 275/2/4 274/2/4 276/2/4
f 257/2/4 275/2/4 277/2/4
f 275/1/4 276/1/4 277/1/4
f 277/1/4 276/1/4 278/1/4
f 257/2/4 277/2/4 279/2/4
f 277/2/4 278/2/4 279/2/4
f 279/2/4 278/2/4 280/2/4
f 257/2/4 279/2/4 281/2/4
f 279/1/4 280/1/4 281/1/4
f 281/1/4 280/1/4 282/1/4
f 257/2/4 281/2/4 283/2/4
f 281/2/4 282/2/4 283/2/4
f 283/2/4 282/2/4 284/2/4
f 257/2/4 283/2/4 285/2/4
f 283/1/4 284/1/4 285/1/4
f 285/1/4 284/1/4 286/1/4
f 257/2/4 285/2/4 287/2/4
f 285/2/4 286/2/4 287/2/4
f 287/2/4 286/2/4 288/2/4
f 291/2/5 290/2/5 289/2/5
f 292/2/5 290/2/5 291/2/5
f 299/2/6 300/2/6 301/2/6
f 301/2/6 300/2/6 302/2/6
f 302/2/6 300/2/6 303/2/6
f 303/2/6 300/2/6 304/2/6
f 304/2/6 300/2/6 305/2/6
f 305/2/6 300/2/6 306/2/6
f 299/2/6 301/2/6 307/2/6
f 299/2/6 307/2/6 308/2/6
f 306/2/6 300/2/6 311/2/6
f 311/2/6 300/2/6 316/2/6
f 309/2/6 310/2/6 317/2/6
f 308/2/6 309/2/6 317/2/6
f 317/2/6 310/2/6 318/2/6
f 312/2/6 313/2/6 319/2/6
f 308/2/6 317/2/6 320/2/6
f 320/2/6 317/2/6 321/2/6
f 318/2/6 319/2/6 322/2/6
f 319/2/6 313/2/6 323/2/6
f 322/2/6 319/2/6 323/2/6
f 323/2/6 313/2/6 324/2/6
f 315/2/6 316/2/6 325/2/6
f 314/2/6 315/2/6 325/2/6
f 299/2/6 308/2/6 326/2/6
f 308/2/6 320/2/6 326/2/6
f 326/2/6 320/2/6 327/2/6
f 322/2/6 323/2/6 328/2/6
f 321/2/6 322/2/6 328/2/6
f 328/2/6 323/2/6 329/2/6
f 329/2/6 323/2/6 330/2/6
f 324/2/6 325/2/6 331/2/6
f 327/2/6 328/2/6 333/2/6
f 328/2/6 329/2/6 333/2/6
f 333/2/6 329/2/6 334/2/6
f 334/2/6 329/2/6 335/2/6
f 330/2/6 331/2/6 336/2/6
f 332/2/6 333/2/6 337/2/6
f 333/2/6 334/2/6 337/2/6
f 337/2/6 334/2/6 338/2/6
f 335/2/6 336/2/6 339/2/6
f 299/2/6 326/2/6 340/2/6
f 340/2/6 326/2/6 341/2/6
f 338/2/6 339/2/6 342/2/6
f 339/2/6 336/2/6 343/2/6
f 342/2/6 339/2/6 343/2/6
f 297/2/6 298/2/6 344/2/6
f 332/2/6 337/2/6 345/2/6
f 345/2/6 337/2/6 346/2/6
f 296/1/6 297/1/6 348/1/6
f 346/2/6 347/2/6 348/2/6
f 345/2/6 346/2/6 348/2/6
f 344/2/6 345/2/6 348/2/6
f 297/2/6 344/2/6 348/2/6
f 348/2/6 347/2/6 349/2/6
f 295/2/6 296/2/6 350/2/6
f 296/1/6 348/1/6 350/1/6
f 348/1/6 349/1/6 350/1/6
f 350/1/6 349/1/6 351/1/6
f 295/2/6 350/2/6 352/2/6
f 350/2/6 351/2/6 352/2/6
f 352/2/6 351/2/6 353/2/6
f 293/2/6 294/2/6 354/2/6
f 343/2/6 336/2/6 356/2/6
f 336/2/6 331/2/6 356/2/6
f 325/2/6 316/2/6 357/2/6
f 356/2/6 331/2/6 357/2/6
f 331/2/6 325/2/6 357/2/6
f 357/2/6 316/2/6 358/2/6
f 358/2/6 316/2/6 359/2/6
f 359/2/6 316/2/6 360/2/6
f 316/2/6 300/2/6 361/2/6
f 360/2/6 316/2/6 361/2/6
f 361/2/6 300/2/6 362/2/6
f 362/2/6 300/2/6 363/2/6
f 363/2/6 300/2/6 364/2/6
f 364/2/6 300/2/6 365/2/6
f 343/2/6 356/2/6 366/2/6
f 356/1/6 357/1/6 366/1/6
f 366/1/6 357/1/6 367/1/6
f 358/1/6 359/1/6 368/1/6
f 359/2/6 360/2/6 369/2/6
f 368/1/6 359/1/6 369/1/6
f 360/1/6 361/1/6 370/1/6
f 370/1/6 361/1/6 371/1/6
f 361/2/6 362/2/6 372/2/6
f 362/1/6 363/1/6 372/1/6
f 363/2/6 364/2/6 373/2/6
f 372/1/6 363/1/6 373/1/6
f 364/1/6 365/1/6 374/1/6
f 373/2/6 364/2/6 374/2/6
f 365/2/6 300/2/6 375/2/6
f 374/1/6 365/1/6 375/1/6
f 367/1/6 357/1/6 376/1/6
f 366/2/6 367/2/6 376/2/6
f 357/2/6 358/2/6 377/2/6
f 376/1/6 357/1/6 377/1/6
f 358/1/6 368/1/6 378/1/6
f 377/2/6 358/2/6 378/2/6
f 368/2/6 369/2/6 379/2/6
f 378/1/6 368/1/6 379/1/6
f 370/2/6 371/2/6 380/2/6
f 360/1/6 370/1/6 380/1/6
f 371/1/6 361/1/6 381/1/6
f 380/2/6 371/2/6 381/2/6
f 372/2/6 373/2/6 382/2/6
f 361/2/6 372/2/6 382/2/6
f 373/1/6 374/1/6 383/1/6
f 382/2/6 373/2/6 383/2/6
f 374/2/6 375/2/6 384/2/6
f 383/1/6 374/1/6 384/1/6
f 375/2/6 300/2/6 385/2/6
f 384/2/6 375/2/6 385/2/6
f 354/2/6 355/2/6 386/2/6
f 293/2/6 354/2/6 386/2/6
f 386/2/6 355/2/6 387/2/6
f 353/2/6 351/2/6 388/2/6
f 351/1/6 349/1/6 389/1/6
f 388/2/6 351/2/6 389/2/6
f 349/2/6 347/2/6 390/2/6
f 389/1/6 349/1/6 390/1/6
f 390/2/6 347/2/6 391/2/6
f 376/2/6 377/2/6 392/2/6
f 366/2/6 376/2/6 392/2/6
f 343/2/6 366/2/6 392/2/6
f 377/1/6 378/1/6 393/1/6
f 392/2/6 377/2/6 393/2/6
f 378/2/6 379/2/6 394/2/6
f 393/1/6 378/1/6 394/1/6
f 369/2/6 360/2/6 395/2/6
f 394/2/6 379/2/6 395/2/6
f 360/1/6 380/1/6 395/1/6
f 379/2/6 369/2/6 395/2/6
f 380/1/6 381/1/6 395/1/6
f 361/2/6 382/2/6 396/2/6
f 395/1/6 381/1/6 396/1/6
f 381/1/6 361/1/6 396/1/6
f 382/1/6 383/1/6 397/1/6
f 396/2/6 382/2/6 397/2/6
f 383/2/6 384/2/6 398/2/6
f 397/1/6 383/1/6 398/1/6
f 384/1/6 385/1/6 399/1/6
f 398/2/6 384/2/6 399/2/6
f 385/2/6 300/2/6 400/2/6
f 399/1/6 385/1/6 400/1/6
f 400/2/6 300/2/6 401/2/6
f 408/1/6 409/1/6 411/1/6
f 411/1/6 409/1/6 412/1/6
f 409/3/6 410/3/6 413/3/6
f 413/3/6 410/3/6 414/3/6
f 406/1/6 407/1/6 415/1/6
f 415/1/6 407/1/6 416/1/6
f 407/3/6 408/3/6 417/3/6
f 408/1/6 411/1/6 417/1/6
f 411/3/6 412/3/6 418/3/6
f 417/1/6 411/1/6 418/1/6
f 412/1/6 409/1/6 419/1/6
f 409/3/6 413/3/6 419/3/6
f 413/1/6 414/1/6 420/1/6
f 419/3/6 413/3/6 420/3/6
f 406/1/6 415/1/6 421/1/6
f 415/3/6 416/3/6 422/3/6
f 421/1/6 415/1/6 422/1/6
f 416/1/6 407/1/6 423/1/6
f 407/3/6 417/3/6 423/3/6
f 417/3/6 418/3/6 423/3/6
f 418/3/6 412/3/6 424/3/6
f 423/3/6 418/3/6 424/3/6
f 419/1/6 420/1/6 424/1/6
f 412/1/6 419/1/6 424/1/6
f 422/3/6 416/3/6 425/3/6
f 421/3/6 422/3/6 425/3/6
f 416/1/6 423/1/6 426/1/6
f 425/3/6 416/3/6 426/3/6
f 423/1/6 424/1/6 426/1/6
f 421/3/6 425/3/6 427/3/6
f 425/1/6 426/1/6 428/1/6
f 427/3/6 425/3/6 428/3/6
f 426/1/6 424/1/6 429/1/6
f 428/1/6 426/1/6 429/1/6
f 424/1/6 420/1/6 430/1/6
f 429/1/6 424/1/6 430/1/6
f 420/1/6 414/1/6 431/1/6
f 430/1/6 420/1/6 431/1/6
f 429/1/6 430/1/6 432/1/6
f 432/1/6 430/1/6 433/1/6
f 433/1/6 430/1/6 434/1/6
f 430/3/6 431/3/6 435/3/6
f 434/1/6 430/1/6 435/1/6
f 435/3/6 431/3/6 436/3/6
f 429/1/6 432/1/6 438/1/6
f 438/1/6 432/1/6 439/1/6
f 437/1/6 438/1/6 441/1/6
f 441/1/6 438/1/6 442/1/6
f 433/1/6 434/1/6 444/1/6
f 444/1/6 434/1/6 445/1/6
f 440/1/6 441/1/6 447/1/6
f 447/1/6 441/1/6 448/1/6
f 443/1/6 444/1/6 450/1/6
f 450/1/6 444/1/6 451/1/6
f 446/1/6 447/1/6 452/1/6
f 452/1/6 447/1/6 453/1/6
f 449/1/6 450/1/6 455/1/6
f 455/1/6 450/1/6 456/1/6
f 454/1/6 455/1/6 458/1/6
f 458/1/6 455/1/6 459/1/6
f 404/1/6 405/1/6 460/1/6
f 446/1/6 452/1/6 461/1/6
f 457/1/6 458/1/6 462/1/6
f 404/1/6 460/1/6 464/1/6
f 460/1/6 461/1/6 464/1/6
f 461/1/6 452/1/6 465/1/6
f 464/1/6 461/1/6 465/1/6
f 462/1/6 463/1/6 466/1/6
f 457/1/6 462/1/6 466/1/6
f 466/1/6 463/1/6 467/1/6
f 402/1/6 403/1/6 468/1/6
f 402/1/6 468/1/6 470/1/6
f 468/1/6 469/1/6 470/1/6
f 470/1/6 469/1/6 471/1/6
f 471/1/6 469/1/6 472/1/6
f 472/1/6 469/1/6 473/1/6
f 467/1/6 463/1/6 474/1/6
f 474/1/6 463/1/6 475/1/6
