# MagicaVoxel @ Ephtracy

# group
o 

# material
mtllib untitled.mtl
usemtl palette

# normals
vn -1 0 0
vn 1 0 0
vn 0 0 1
vn 0 0 -1
vn 0 -1 0
vn 0 1 0

# texcoords
vt 0.841797 0.5
vt 0.994141 0.5

# verts
v -1.2 0 0.8
v -1.2 0 0.5
v -1.2 0.7 -0.4
v -1.2 0.7 -0.9
v -1.2 1.4 -1.4
v -1.2 1.4 -1.9
v -1.2 3.5 -0.0999999
v -1.2 3.5 -0.2
v -1.2 3.5 -0.4
v -1.2 3.5 -0.9
v -1.2 3.5 -1.4
v -1.2 3.5 -1.9
v -1.2 3.6 -0.0999999
v -1.2 3.6 -0.2
v -1.2 3.7 0.8
v -1.2 3.7 0.5
v -1.1 0 1.7
v -1.1 0 0.8
v -1.1 0 0.5
v -1.1 0 -2.3
v -1.1 0.7 -0.4
v -1.1 0.7 -0.9
v -1.1 1.4 -1.4
v -1.1 1.4 -1.9
v -1.1 3.4 1.7
v -1.1 3.4 1.5
v -1.1 3.4 -0.9
v -1.1 3.4 -1.1
v -1.1 3.5 -0.0999999
v -1.1 3.5 -0.2
v -1.1 3.5 -0.4
v -1.1 3.5 -1.4
v -1.1 3.5 -1.9
v -1.1 3.5 -2.3
v -1.1 3.6 1.5
v -1.1 3.6 0.8
v -1.1 3.6 0.5
v -1.1 3.6 -0.0999999
v -1.1 3.6 -0.2
v -1.1 3.6 -0.4
v -1.1 3.6 -1.1
v -1.1 3.6 -1.4
v -0.9 3.4 -0.9
v -0.9 3.4 -1.1
v -0.9 3.5 -0.9
v -0.9 3.6 -0.9
v -0.9 3.6 -1.1
v -0.4 0 -2.2
v -0.4 0 -2.3
v -0.4 3.4 -2.2
v -0.4 3.4 -2.3
v -0.4 3.5 -1.8
v -0.4 3.5 -1.9
v -0.4 3.5 -2.2
v -0.4 3.5 -2.3
v -0.4 3.6 -1.8
v -0.4 3.6 -2.3
v -1 0 -2.2
v -1 0 -2.3
v -1 3.4 -2.2
v -1 3.4 -2.3
v -0.7 3.4 1.5
v -0.7 3.4 1.4
v -0.7 3.5 1.4
v -0.7 3.5 -0.2
v -0.7 3.5 -0.3
v -0.7 3.5 -0.4
v -0.7 3.5 -0.9
v -0.7 3.5 -1.4
v -0.7 3.6 1.5
v -0.7 3.6 1.4
v -0.7 3.6 0.8
v -0.7 3.6 0.5
v -0.7 3.6 -0.2
v -0.7 3.6 -0.3
v -0.7 3.6 -0.4
v -0.7 3.6 -0.9
v -0.7 3.6 -1.4
v -0.7 3.7 0.8
v -0.7 3.7 0.5
v -0.6 3.5 -0.2
v -0.6 3.5 -0.3
v -0.6 3.6 -0.2
v -0.6 3.6 -0.3
v -0.0999999 0 -2.2
v -0.0999999 0 -2.3
v -0.0999999 3.4 -2.2
v -0.0999999 3.4 -2.3
v -0.0999999 3.5 -1.8
v -0.0999999 3.5 -1.9
v -0.0999999 3.5 -2.3
v -0.0999999 3.6 -1.8
v -0.0999999 3.6 -2.3
v 0.8 3.4 1.4
v 0.8 3.4 -1.9
v 0.8 3.5 1.4
v 0.8 3.5 -1.9
v 1.2 3.4 -1.9
v 1.2 3.4 -2.2
v 1.2 3.4 -2.3
v 1.2 3.5 -1.9
v 1.2 3.5 -2.3
v 1.3 0 1.7
v 1.3 0 -2.2
v 1.3 3.4 1.7
v 1.3 3.4 -2.2
v -1.1 0 1.7
v -1.1 3.4 1.7
v 1.3 0 1.7
v 1.3 3.4 1.7
v -1.1 3.4 1.5
v -1.1 3.6 1.5
v -0.7 3.4 1.5
v -0.7 3.6 1.5
v -0.7 3.4 1.4
v -0.7 3.5 1.4
v 0.8 3.4 1.4
v 0.8 3.5 1.4
v -1.2 0 0.8
v -1.2 3.7 0.8
v -1.1 0 0.8
v -1.1 3.6 0.8
v -0.8 3.6 0.8
v -0.7 3.6 0.8
v -0.7 3.7 0.8
v -1.2 3.5 -0.0999999
v -1.2 3.6 -0.0999999
v -1.1 3.5 -0.0999999
v -1.1 3.6 -0.0999999
v -0.7 3.5 -0.2
v -0.7 3.6 -0.2
v -0.6 3.5 -0.2
v -0.6 3.6 -0.2
v -1.2 0.7 -0.4
v -1.2 3.5 -0.4
v -1.1 0.7 -0.4
v -1.1 3.5 -0.4
v -0.9 3.5 -0.9
v -0.9 3.6 -0.9
v -0.7 3.5 -0.9
v -0.7 3.6 -0.9
v -1.1 3.4 -1.1
v -1.1 3.6 -1.1
v -0.9 3.4 -1.1
v -0.9 3.6 -1.1
v -1.2 1.4 -1.4
v -1.2 3.5 -1.4
v -1.1 1.4 -1.4
v -1.1 3.5 -1.4
v -0.4 3.5 -1.8
v -0.4 3.6 -1.8
v -0.0999999 3.5 -1.8
v -0.0999999 3.6 -1.8
v 0.8 3.4 -1.9
v 0.8 3.5 -1.9
v 1.2 3.4 -1.9
v 1.2 3.5 -1.9
v -1.2 0 0.5
v -1.2 3.7 0.5
v -1.1 0 0.5
v -1.1 3.6 0.5
v -0.8 3.6 0.5
v -0.7 3.6 0.5
v -0.7 3.7 0.5
v -1.2 3.5 -0.2
v -1.2 3.6 -0.2
v -1.1 3.5 -0.2
v -1.1 3.6 -0.2
v -0.7 3.5 -0.3
v -0.7 3.6 -0.3
v -0.6 3.5 -0.3
v -0.6 3.6 -0.3
v -1.1 3.5 -0.4
v -1.1 3.6 -0.4
v -0.8 3.5 -0.4
v -0.8 3.6 -0.4
v -0.7 3.5 -0.4
v -0.7 3.6 -0.4
v -1.2 0.7 -0.9
v -1.2 3.5 -0.9
v -1.1 0.7 -0.9
v -1.1 3.4 -0.9
v -0.9 3.4 -0.9
v -0.9 3.5 -0.9
v -1.1 3.5 -1.4
v -1.1 3.6 -1.4
v -0.7 3.5 -1.4
v -0.7 3.6 -1.4
v -1.2 1.4 -1.9
v -1.2 3.5 -1.9
v -1.1 1.4 -1.9
v -1.1 3.5 -1.9
v -1 0 -2.2
v -1 3.4 -2.2
v -0.5 3.4 -2.2
v -0.4 0 -2.2
v -0.4 3.4 -2.2
v -0.0999999 0 -2.2
v -0.0999999 3.4 -2.2
v 1.2 3.4 -2.2
v 1.3 0 -2.2
v 1.3 3.4 -2.2
v -1.1 0 -2.3
v -1.1 3.5 -2.3
v -1 0 -2.3
v -1 3.4 -2.3
v -0.5 3.4 -2.3
v -0.5 3.5 -2.3
v -0.4 0 -2.3
v -0.4 3.4 -2.3
v -0.4 3.5 -2.3
v -0.4 3.6 -2.3
v -0.0999999 0 -2.3
v -0.0999999 3.4 -2.3
v -0.0999999 3.5 -2.3
v -0.0999999 3.6 -2.3
v 1.2 3.4 -2.3
v 1.2 3.5 -2.3
v -1.1 0 1.7
v 1.3 0 1.7
v -1.2 0 0.8
v -1.1 0 0.8
v -1.2 0 0.5
v -1.1 0 0.5
v -1 0 -2.2
v -0.4 0 -2.2
v -0.0999999 0 -2.2
v 1.3 0 -2.2
v -1.1 0 -2.3
v -1 0 -2.3
v -0.4 0 -2.3
v -0.0999999 0 -2.3
v -1.2 0.7 -0.4
v -1.1 0.7 -0.4
v -1.2 0.7 -0.9
v -1.1 0.7 -0.9
v -1.2 1.4 -1.4
v -1.1 1.4 -1.4
v -1.2 1.4 -1.9
v -1.1 1.4 -1.9
v -1 3.4 -2.2
v -0.5 3.4 -2.2
v -0.4 3.4 -2.2
v -0.0999999 3.4 -2.2
v 1.2 3.4 -2.2
v -1 3.4 -2.3
v -0.5 3.4 -2.3
v -0.4 3.4 -2.3
v -0.0999999 3.4 -2.3
v 1.2 3.4 -2.3
v -1.2 3.5 -0.0999999
v -1.1 3.5 -0.0999999
v -1.2 3.5 -0.2
v -1.1 3.5 -0.2
v -1.1 3.4 1.7
v 1.3 3.4 1.7
v -1.1 3.4 1.5
v -0.7 3.4 1.5
v -0.7 3.4 1.4
v 0.8 3.4 1.4
v -1.1 3.4 -0.9
v -0.9 3.4 -0.9
v -1.1 3.4 -1.1
v -0.9 3.4 -1.1
v 0.8 3.4 -1.9
v 1.2 3.4 -1.9
v 1.2 3.4 -2.2
v 1.3 3.4 -2.2
v -0.7 3.5 1.4
v 0.8 3.5 1.4
v -0.7 3.5 -0.2
v -0.6 3.5 -0.2
v -0.7 3.5 -0.3
v -0.6 3.5 -0.3
v -1.2 3.5 -0.4
v -1.1 3.5 -0.4
v -0.8 3.5 -0.4
v -0.7 3.5 -0.4
v -1.2 3.5 -0.9
v -0.9 3.5 -0.9
v -0.7 3.5 -0.9
v -1.2 3.5 -1.4
v -1.1 3.5 -1.4
v -0.7 3.5 -1.4
v -0.4 3.5 -1.8
v -0.0999999 3.5 -1.8
v -1.2 3.5 -1.9
v -1.1 3.5 -1.9
v -0.4 3.5 -1.9
v -0.0999999 3.5 -1.9
v 0.8 3.5 -1.9
v 1.2 3.5 -1.9
v -0.5 3.5 -2.2
v -0.4 3.5 -2.2
v -1.1 3.5 -2.3
v -0.5 3.5 -2.3
v -0.4 3.5 -2.3
v -0.0999999 3.5 -2.3
v 1.2 3.5 -2.3
v -1.1 3.6 1.5
v -0.7 3.6 1.5
v -0.8 3.6 1.4
v -0.7 3.6 1.4
v -1.1 3.6 0.8
v -0.8 3.6 0.8
v -0.7 3.6 0.8
v -1.1 3.6 0.5
v -0.8 3.6 0.5
v -0.7 3.6 0.5
v -1.2 3.6 -0.0999999
v -1.1 3.6 -0.0999999
v -1.2 3.6 -0.2
v -1.1 3.6 -0.2
v -0.7 3.6 -0.2
v -0.6 3.6 -0.2
v -0.7 3.6 -0.3
v -0.6 3.6 -0.3
v -1.1 3.6 -0.4
v -0.8 3.6 -0.4
v -0.7 3.6 -0.4
v -0.9 3.6 -0.9
v -0.7 3.6 -0.9
v -1.1 3.6 -1.1
v -0.9 3.6 -1.1
v -1.1 3.6 -1.4
v -0.7 3.6 -1.4
v -0.4 3.6 -1.8
v -0.0999999 3.6 -1.8
v -0.4 3.6 -2.3
v -0.0999999 3.6 -2.3
v -1.2 3.7 0.8
v -0.7 3.7 0.8
v -1.2 3.7 0.5
v -0.7 3.7 0.5

# faces
f 9/1/1 4/1/1 3/1/1
f 10/1/1 4/1/1 9/1/1
f 11/1/1 6/1/1 5/1/1
f 12/1/1 6/1/1 11/1/1
f 13/2/1 8/2/1 7/2/1
f 14/2/1 8/2/1 13/2/1
f 15/1/1 2/1/1 1/1/1
f 16/1/1 2/1/1 15/1/1
f 21/2/1 20/2/1 19/2/1
f 22/2/1 20/2/1 21/2/1
f 23/2/1 20/2/1 22/2/1
f 24/2/1 20/2/1 23/2/1
f 25/2/1 18/2/1 17/2/1
f 26/2/1 18/2/1 25/2/1
f 27/2/1 23/2/1 22/2/1
f 28/2/1 23/2/1 27/2/1
f 29/2/1 21/2/1 19/2/1
f 30/2/1 21/2/1 29/2/1
f 31/2/1 21/2/1 30/2/1
f 32/2/1 23/2/1 28/2/1
f 33/2/1 20/2/1 24/2/1
f 34/2/1 20/2/1 33/2/1
f 35/2/1 18/2/1 26/2/1
f 36/2/1 18/2/1 35/2/1
f 37/2/1 29/2/1 19/2/1
f 38/2/1 29/2/1 37/2/1
f 39/2/1 31/2/1 30/2/1
f 40/2/1 31/2/1 39/2/1
f 41/2/1 32/2/1 28/2/1
f 42/2/1 32/2/1 41/2/1
f 45/2/1 44/2/1 43/2/1
f 46/2/1 44/2/1 45/2/1
f 47/2/1 44/2/1 46/2/1
f 50/1/1 49/1/1 48/1/1
f 51/1/1 49/1/1 50/1/1
f 56/1/1 53/1/1 52/1/1
f 56/1/1 55/1/1 54/1/1
f 56/1/1 54/1/1 53/1/1
f 57/1/1 55/1/1 56/1/1
f 58/2/2 59/2/2 60/2/2
f 60/2/2 59/2/2 61/2/2
f 62/2/2 63/2/2 64/2/2
f 62/2/2 64/2/2 70/2/2
f 64/1/2 65/1/2 71/1/2
f 70/2/2 64/2/2 71/2/2
f 71/1/2 65/1/2 72/1/2
f 72/1/2 65/1/2 73/1/2
f 73/1/2 65/1/2 74/1/2
f 66/1/2 67/1/2 75/1/2
f 75/1/2 67/1/2 76/1/2
f 68/2/2 69/2/2 77/2/2
f 77/2/2 69/2/2 78/2/2
f 72/1/2 73/1/2 79/1/2
f 79/1/2 73/1/2 80/1/2
f 81/1/2 82/1/2 83/1/2
f 83/1/2 82/1/2 84/1/2
f 85/1/2 86/1/2 87/1/2
f 87/1/2 86/1/2 88/1/2
f 89/1/2 90/1/2 92/1/2
f 90/1/2 91/1/2 92/1/2
f 92/1/2 91/1/2 93/1/2
f 94/1/2 95/1/2 96/1/2
f 96/1/2 95/1/2 97/1/2
f 98/2/2 99/2/2 101/2/2
f 99/2/2 100/2/2 101/2/2
f 101/2/2 100/2/2 102/2/2
f 103/2/2 104/2/2 105/2/2
f 105/2/2 104/2/2 106/2/2
f 109/2/3 108/2/3 107/2/3
f 110/2/3 108/2/3 109/2/3
f 113/2/3 112/2/3 111/2/3
f 114/2/3 112/2/3 113/2/3
f 117/1/3 116/1/3 115/1/3
f 118/1/3 116/1/3 117/1/3
f 121/1/3 120/1/3 119/1/3
f 122/1/3 120/1/3 121/1/3
f 123/1/3 120/1/3 122/1/3
f 124/1/3 120/1/3 123/1/3
f 125/1/3 120/1/3 124/1/3
f 128/2/3 127/2/3 126/2/3
f 129/2/3 127/2/3 128/2/3
f 132/1/3 131/1/3 130/1/3
f 133/1/3 131/1/3 132/1/3
f 136/1/3 135/1/3 134/1/3
f 137/1/3 135/1/3 136/1/3
f 140/2/3 139/2/3 138/2/3
f 141/2/3 139/2/3 140/2/3
f 144/2/3 143/2/3 142/2/3
f 145/2/3 143/2/3 144/2/3
f 148/1/3 147/1/3 146/1/3
f 149/1/3 147/1/3 148/1/3
f 152/1/3 151/1/3 150/1/3
f 153/1/3 151/1/3 152/1/3
f 156/2/3 155/2/3 154/2/3
f 157/2/3 155/2/3 156/2/3
f 158/1/4 159/1/4 160/1/4
f 160/1/4 159/1/4 161/1/4
f 161/1/4 159/1/4 162/1/4
f 162/1/4 159/1/4 163/1/4
f 163/1/4 159/1/4 164/1/4
f 165/2/4 166/2/4 167/2/4
f 167/2/4 166/2/4 168/2/4
f 169/1/4 170/1/4 171/1/4
f 171/1/4 170/1/4 172/1/4
f 173/2/4 174/2/4 175/2/4
f 175/2/4 174/2/4 176/2/4
f 175/1/4 176/1/4 177/1/4
f 177/1/4 176/1/4 178/1/4
f 179/1/4 180/1/4 181/1/4
f 181/1/4 180/1/4 182/1/4
f 182/1/4 180/1/4 183/1/4
f 183/1/4 180/1/4 184/1/4
f 185/2/4 186/2/4 187/2/4
f 187/2/4 186/2/4 188/2/4
f 189/1/4 190/1/4 191/1/4
f 191/1/4 190/1/4 192/1/4
f 193/2/4 194/2/4 195/2/4
f 193/2/4 195/2/4 196/2/4
f 196/2/4 195/2/4 197/2/4
f 198/2/4 199/2/4 200/2/4
f 198/2/4 200/2/4 201/2/4
f 201/2/4 200/2/4 202/2/4
f 203/2/4 204/2/4 205/2/4
f 205/2/4 204/2/4 206/2/4
f 206/2/4 204/2/4 207/2/4
f 207/2/4 204/2/4 208/2/4
f 207/1/4 208/1/4 210/1/4
f 210/1/4 208/1/4 211/1/4
f 210/1/4 211/1/4 213/1/4
f 211/1/4 212/1/4 213/1/4
f 209/1/4 210/1/4 213/1/4
f 213/1/4 212/1/4 214/1/4
f 214/1/4 212/1/4 215/1/4
f 215/1/4 212/1/4 216/1/4
f 214/2/4 215/2/4 217/2/4
f 217/2/4 215/2/4 218/2/4
f 222/2/5 220/2/5 219/2/5
f 223/1/5 222/1/5 221/1/5
f 224/2/5 220/2/5 222/2/5
f 224/1/5 222/1/5 223/1/5
f 225/2/5 220/2/5 224/2/5
f 226/2/5 220/2/5 225/2/5
f 227/2/5 220/2/5 226/2/5
f 228/2/5 220/2/5 227/2/5
f 229/2/5 225/2/5 224/2/5
f 230/2/5 225/2/5 229/2/5
f 231/1/5 227/1/5 226/1/5
f 232/1/5 227/1/5 231/1/5
f 235/1/5 234/1/5 233/1/5
f 236/1/5 234/1/5 235/1/5
f 239/1/5 238/1/5 237/1/5
f 240/1/5 238/1/5 239/1/5
f 246/2/5 242/2/5 241/2/5
f 247/1/5 243/1/5 242/1/5
f 247/2/5 242/2/5 246/2/5
f 248/1/5 243/1/5 247/1/5
f 249/2/5 245/2/5 244/2/5
f 250/2/5 245/2/5 249/2/5
f 253/2/5 252/2/5 251/2/5
f 254/2/5 252/2/5 253/2/5
f 255/2/6 256/2/6 257/2/6
f 257/2/6 256/2/6 258/2/6
f 258/2/6 256/2/6 259/2/6
f 259/2/6 256/2/6 260/2/6
f 261/2/6 262/2/6 263/2/6
f 263/2/6 262/2/6 264/2/6
f 260/2/6 256/2/6 265/2/6
f 265/2/6 256/2/6 266/2/6
f 266/2/6 256/2/6 267/2/6
f 267/2/6 256/2/6 268/2/6
f 269/1/6 270/1/6 271/1/6
f 271/1/6 270/1/6 272/1/6
f 272/1/6 270/1/6 274/1/6
f 273/1/6 274/1/6 278/1/6
f 276/1/6 277/1/6 279/1/6
f 277/1/6 278/1/6 279/1/6
f 275/1/6 276/1/6 279/1/6
f 279/1/6 278/1/6 280/1/6
f 278/1/6 274/1/6 281/1/6
f 280/1/6 278/1/6 281/1/6
f 281/1/6 274/1/6 284/1/6
f 274/1/6 270/1/6 285/1/6
f 283/1/6 284/1/6 285/1/6
f 284/1/6 274/1/6 285/1/6
f 282/1/6 283/1/6 285/1/6
f 285/1/6 270/1/6 286/1/6
f 282/1/6 285/1/6 287/1/6
f 287/1/6 285/1/6 288/1/6
f 288/1/6 285/1/6 289/1/6
f 286/1/6 270/1/6 290/1/6
f 290/1/6 270/1/6 291/1/6
f 288/2/6 289/2/6 293/2/6
f 293/2/6 289/2/6 294/2/6
f 288/2/6 293/2/6 295/2/6
f 293/1/6 294/1/6 296/1/6
f 295/2/6 293/2/6 296/2/6
f 296/1/6 294/1/6 297/1/6
f 291/2/6 292/2/6 298/2/6
f 290/2/6 291/2/6 298/2/6
f 298/2/6 292/2/6 299/2/6
f 300/2/6 301/2/6 302/2/6
f 302/2/6 301/2/6 303/2/6
f 300/2/6 302/2/6 304/2/6
f 302/1/6 303/1/6 305/1/6
f 304/2/6 302/2/6 305/2/6
f 305/1/6 303/1/6 306/1/6
f 307/2/6 308/2/6 311/2/6
f 310/2/6 311/2/6 312/2/6
f 311/2/6 308/2/6 313/2/6
f 312/2/6 311/2/6 313/2/6
f 308/1/6 309/1/6 314/1/6
f 308/1/6 314/1/6 316/1/6
f 314/1/6 315/1/6 316/1/6
f 316/1/6 315/1/6 317/1/6
f 313/2/6 308/2/6 318/2/6
f 308/1/6 316/1/6 319/1/6
f 318/2/6 308/2/6 319/2/6
f 319/1/6 316/1/6 320/1/6
f 321/2/6 322/2/6 324/2/6
f 323/2/6 324/2/6 325/2/6
f 324/2/6 322/2/6 326/2/6
f 325/2/6 324/2/6 326/2/6
f 327/1/6 328/1/6 329/1/6
f 329/1/6 328/1/6 330/1/6
f 331/1/6 332/1/6 333/1/6
f 333/1/6 332/1/6 334/1/6
